<?xml version="1.0" encoding="UTF-8" standalone="no"?>
<svg width="390.525mm" height="55.7389mm"
 xmlns="http://www.w3.org/2000/svg" xmlns:xlink="http://www.w3.org/1999/xlink"  version="1.2" baseProfile="tiny">
<title>Qt Svg Document</title>
<desc>Generated with Qt</desc>
<defs>
</defs>
<g fill="none" stroke="black" stroke-width="1" fill-rule="evenodd" stroke-linecap="square" stroke-linejoin="bevel" >

<g fill="none" stroke="#000000" stroke-opacity="1" stroke-width="1" stroke-linecap="square" stroke-linejoin="bevel" transform="matrix(1,0,0,1,0,0)"
font-family="Ubuntu" font-size="11" font-weight="400" font-style="normal" 
>
</g>

<g fill="none" stroke="#000000" stroke-opacity="1" stroke-width="1" stroke-linecap="square" stroke-linejoin="bevel" transform="matrix(1,0,0,1,0,0)"
font-family="Ubuntu" font-size="11" font-weight="400" font-style="normal" 
>
</g>

<g fill="none" stroke="#000000" stroke-opacity="1" stroke-width="1" stroke-linecap="square" stroke-linejoin="bevel" transform="matrix(2,0,0,2,-1.9984,173)"
font-family="Ubuntu" font-size="11" font-weight="400" font-style="normal" 
>
</g>

<g fill="#ffffff" fill-opacity="1" stroke="none" transform="matrix(2,0,0,2,-1.9984,173)"
font-family="Ubuntu" font-size="11" font-weight="400" font-style="normal" 
>
<path vector-effect="non-scaling-stroke" fill-rule="evenodd" d="M0.9992,-86.5 L554.5,-86.5 L554.5,-7.5 L0.9992,-7.5 L0.9992,-86.5"/>
</g>

<g fill="none" stroke="#000000" stroke-opacity="1" stroke-width="1" stroke-linecap="square" stroke-linejoin="bevel" transform="matrix(2,0,0,2,-1.9984,173)"
font-family="Ubuntu" font-size="11" font-weight="400" font-style="normal" 
>
</g>

<g fill="none" stroke="#000000" stroke-opacity="1" stroke-width="1" stroke-linecap="square" stroke-linejoin="bevel" transform="matrix(2,0,0,2,-1.9984,173)"
font-family="Ubuntu" font-size="11" font-weight="400" font-style="normal" 
>
</g>

<g fill="none" stroke="#000000" stroke-opacity="1" stroke-width="1" stroke-linecap="square" stroke-linejoin="bevel" transform="matrix(2,0,0,2,-1.9984,173)"
font-family="Ubuntu" font-size="11" font-weight="400" font-style="normal" 
>
</g>

<g fill="none" stroke="#000000" stroke-opacity="1" stroke-width="1" stroke-linecap="square" stroke-linejoin="bevel" transform="matrix(2,0,0,2,-1.9984,173)"
font-family="Ubuntu" font-size="11" font-weight="400" font-style="normal" 
>
</g>

<g fill="none" stroke="#000000" stroke-opacity="1" stroke-width="1" stroke-linecap="square" stroke-linejoin="round" transform="matrix(2,0,0,2,-1.9984,173)"
font-family="Ubuntu" font-size="11" font-weight="400" font-style="normal" 
>
<path vector-effect="none" fill-rule="evenodd" d="M128.501,-34 C128.501,-24.0589 100.071,-16 65,-16 C29.9295,-16 1.4992,-24.0589 1.4992,-34 C1.4992,-43.9411 29.9295,-52 65,-52 C100.071,-52 128.501,-43.9411 128.501,-34 "/>
</g>

<g fill="none" stroke="#000000" stroke-opacity="1" stroke-width="1" stroke-linecap="square" stroke-linejoin="bevel" transform="matrix(2,0,0,2,-1.9984,173)"
font-family="Ubuntu" font-size="11" font-weight="400" font-style="normal" 
>
</g>

<g fill="none" stroke="#000000" stroke-opacity="1" stroke-width="1" stroke-linecap="square" stroke-linejoin="bevel" transform="matrix(2,0,0,2,53.6578,87.9999)"
font-family="Ubuntu" font-size="11" font-weight="400" font-style="normal" 
>
</g>

<g fill="none" stroke="#000000" stroke-opacity="1" stroke-width="1" stroke-linecap="square" stroke-linejoin="bevel" transform="matrix(2,0,0,2,53.6578,87.9999)"
font-family="Ubuntu" font-size="11" font-weight="400" font-style="normal" 
>
</g>

<g fill="#000000" fill-opacity="1" stroke="#000000" stroke-opacity="1" stroke-width="1" stroke-linecap="square" stroke-linejoin="round" transform="matrix(2,0,0,2,53.6578,87.9999)"
font-family="Ubuntu" font-size="11" font-weight="400" font-style="normal" 
>
<path vector-effect="non-scaling-stroke" fill-rule="nonzero" d="M1.04688,16.7188 L-0.34375,16.7188 L4.625,2.5 L6,2.5 L1.04688,16.7188 M8.57812,13.0156 C9.14062,13.0156 9.55469,12.9427 9.82031,12.7969 C10.0859,12.651 10.2188,12.4167 10.2188,12.0938 C10.2188,11.7604 10.0885,11.4948 9.82812,11.2969 C9.56771,11.099 9.13021,10.8802 8.51562,10.6406 C8.22396,10.526 7.94271,10.4062 7.67188,10.2812 C7.40104,10.1562 7.16927,10.0104 6.97656,9.84375 C6.78385,9.67708 6.6276,9.47656 6.50781,9.24219 C6.38802,9.00781 6.32812,8.71875 6.32812,8.375 C6.32812,7.69792 6.57812,7.16146 7.07812,6.76562 C7.57812,6.36979 8.26042,6.17188 9.125,6.17188 C9.33333,6.17188 9.54688,6.1849 9.76562,6.21094 C9.98438,6.23698 10.1875,6.26823 10.375,6.30469 C10.5625,6.34115 10.7266,6.3776 10.8672,6.41406 C11.0078,6.45052 11.1146,6.48438 11.1875,6.51562 L10.9375,7.6875 C10.7917,7.61458 10.5625,7.53646 10.25,7.45312 C9.9375,7.36979 9.5625,7.32812 9.125,7.32812 C8.73958,7.32812 8.40625,7.40365 8.125,7.55469 C7.84375,7.70573 7.70312,7.94271 7.70312,8.26562 C7.70312,8.43229 7.73438,8.57812 7.79688,8.70312 C7.85938,8.82812 7.95573,8.94271 8.08594,9.04688 C8.21615,9.15104 8.38021,9.2474 8.57812,9.33594 C8.77604,9.42448 9.01042,9.51562 9.28125,9.60938 C9.64583,9.74479 9.96875,9.88021 10.25,10.0156 C10.5312,10.151 10.7734,10.3047 10.9766,10.4766 C11.1797,10.6484 11.3359,10.8594 11.4453,11.1094 C11.5547,11.3594 11.6094,11.6667 11.6094,12.0312 C11.6094,12.7396 11.3464,13.2734 10.8203,13.6328 C10.2943,13.9922 9.54688,14.1719 8.57812,14.1719 C7.90104,14.1719 7.3724,14.1172 6.99219,14.0078 C6.61198,13.8984 6.35417,13.8125 6.21875,13.75 L6.46875,12.5781 C6.625,12.6406 6.875,12.7292 7.21875,12.8438 C7.5625,12.9583 8.01562,13.0156 8.57812,13.0156 M14.7031,14 L13.3281,14 L13.3281,6.35938 L14.7031,6.35938 L14.7031,14 M14.0156,4.98438 C13.7656,4.98438 13.5547,4.90365 13.3828,4.74219 C13.2109,4.58073 13.125,4.36458 13.125,4.09375 C13.125,3.82292 13.2109,3.60677 13.3828,3.44531 C13.5547,3.28385 13.7656,3.20312 14.0156,3.20312 C14.2552,3.20312 14.4609,3.28385 14.6328,3.44531 C14.8047,3.60677 14.8906,3.82292 14.8906,4.09375 C14.8906,4.36458 14.8047,4.58073 14.6328,4.74219 C14.4609,4.90365 14.2552,4.98438 14.0156,4.98438 M17.0312,6.59375 C17.3438,6.51042 17.7604,6.42448 18.2812,6.33594 C18.8021,6.2474 19.401,6.20312 20.0781,6.20312 C20.6823,6.20312 21.1849,6.28906 21.5859,6.46094 C21.987,6.63281 22.3073,6.8724 22.5469,7.17969 C22.7865,7.48698 22.9557,7.85677 23.0547,8.28906 C23.1536,8.72135 23.2031,9.19792 23.2031,9.71875 L23.2031,14 L21.8438,14 L21.8438,10 C21.8438,9.53125 21.8099,9.13021 21.7422,8.79688 C21.6745,8.46354 21.5677,8.19531 21.4219,7.99219 C21.276,7.78906 21.0807,7.64062 20.8359,7.54688 C20.5911,7.45312 20.2865,7.40625 19.9219,7.40625 C19.776,7.40625 19.625,7.41146 19.4688,7.42188 C19.3125,7.43229 19.1641,7.44531 19.0234,7.46094 C18.8828,7.47656 18.7552,7.49479 18.6406,7.51562 C18.526,7.53646 18.4479,7.55208 18.4062,7.5625 L18.4062,14 L17.0312,14 L17.0312,6.59375 M27.7344,14.1406 C26.8906,14.1302 26.2943,13.9531 25.9453,13.6094 C25.5964,13.2656 25.4219,12.7292 25.4219,12 L25.4219,2.84375 L26.7812,2.60938 L26.7812,11.7812 C26.7812,12.0104 26.7995,12.1979 26.8359,12.3438 C26.8724,12.4896 26.9349,12.6068 27.0234,12.6953 C27.112,12.7839 27.2292,12.849 27.375,12.8906 C27.5208,12.9323 27.7031,12.9688 27.9219,13 L27.7344,14.1406 M29.0156,10.2031 C29.0156,9.52604 29.1146,8.9349 29.3125,8.42969 C29.5104,7.92448 29.7708,7.50521 30.0938,7.17188 C30.4167,6.83854 30.7891,6.58854 31.2109,6.42188 C31.6328,6.25521 32.0625,6.17188 32.5,6.17188 C33.5208,6.17188 34.3073,6.49219 34.8594,7.13281 C35.4115,7.77344 35.6875,8.75 35.6875,10.0625 C35.6875,10.125 35.6875,10.2031 35.6875,10.2969 C35.6875,10.3906 35.6823,10.474 35.6719,10.5469 L30.4375,10.5469 C30.5,11.3385 30.7318,11.9401 31.1328,12.3516 C31.5339,12.763 32.1615,12.9688 33.0156,12.9688 C33.4948,12.9688 33.8984,12.9271 34.2266,12.8438 C34.5547,12.7604 34.8021,12.6823 34.9688,12.6094 L35.1562,13.75 C34.9896,13.8333 34.6979,13.9245 34.2812,14.0234 C33.8646,14.1224 33.3906,14.1719 32.8594,14.1719 C32.1927,14.1719 31.6172,14.0729 31.1328,13.875 C30.6484,13.6771 30.25,13.401 29.9375,13.0469 C29.625,12.6927 29.3932,12.2734 29.2422,11.7891 C29.0911,11.3047 29.0156,10.776 29.0156,10.2031 M34.2656,9.45312 C34.2656,8.83854 34.1068,8.33073 33.7891,7.92969 C33.4714,7.52865 33.0365,7.32812 32.4844,7.32812 C32.1719,7.32812 31.8958,7.39062 31.6562,7.51562 C31.4167,7.64062 31.2135,7.80208 31.0469,8 C30.8802,8.19792 30.75,8.42188 30.6562,8.67188 C30.5625,8.92188 30.5,9.18229 30.4688,9.45312 L34.2656,9.45312 M42.4219,13.2344 C42.2969,13.3177 42.0677,13.4193 41.7344,13.5391 C41.401,13.6589 41.0052,13.7188 40.5469,13.7188 C40.0885,13.7188 39.6562,13.6458 39.25,13.5 C38.8438,13.3542 38.4896,13.1276 38.1875,12.8203 C37.8854,12.513 37.6458,12.1276 37.4688,11.6641 C37.2917,11.2005 37.2031,10.651 37.2031,10.0156 C37.2031,9.46354 37.2865,8.95573 37.4531,8.49219 C37.6198,8.02865 37.862,7.6276 38.1797,7.28906 C38.4974,6.95052 38.8854,6.6849 39.3438,6.49219 C39.8021,6.29948 40.3229,6.20312 40.9062,6.20312 C41.5417,6.20312 42.0964,6.25 42.5703,6.34375 C43.0443,6.4375 43.4427,6.52604 43.7656,6.60938 L43.7656,13.4062 C43.7656,14.5833 43.4635,15.4375 42.8594,15.9688 C42.2552,16.5 41.3333,16.7656 40.0938,16.7656 C39.6146,16.7656 39.1615,16.7266 38.7344,16.6484 C38.3073,16.5703 37.9375,16.474 37.625,16.3594 L37.875,15.1719 C38.1562,15.276 38.4948,15.3698 38.8906,15.4531 C39.2865,15.5365 39.6979,15.5781 40.125,15.5781 C40.9375,15.5781 41.5234,15.4167 41.8828,15.0938 C42.2422,14.7708 42.4219,14.2604 42.4219,13.5625 L42.4219,13.2344 M42.4062,7.57812 C42.2708,7.53646 42.0859,7.4974 41.8516,7.46094 C41.6172,7.42448 41.3073,7.40625 40.9219,7.40625 C40.1823,7.40625 39.6146,7.64583 39.2188,8.125 C38.8229,8.60417 38.625,9.23958 38.625,10.0312 C38.625,10.4792 38.6823,10.8594 38.7969,11.1719 C38.9115,11.4844 39.0651,11.7422 39.2578,11.9453 C39.4505,12.1484 39.6693,12.2995 39.9141,12.3984 C40.1589,12.4974 40.4167,12.5469 40.6875,12.5469 C41.0521,12.5469 41.3854,12.4948 41.6875,12.3906 C41.9896,12.2865 42.2292,12.1667 42.4062,12.0312 L42.4062,7.57812 M51.1719,9.75 C51.3281,9.9375 51.526,10.1901 51.7656,10.5078 C52.0052,10.8255 52.25,11.1797 52.5,11.5703 C52.75,11.9609 53,12.3646 53.25,12.7812 C53.5,13.1979 53.7135,13.6042 53.8906,14 L52.3438,14 C52.1458,13.625 51.9323,13.2474 51.7031,12.8672 C51.474,12.487 51.2422,12.1224 51.0078,11.7734 C50.7734,11.4245 50.5391,11.099 50.3047,10.7969 C50.0703,10.4948 49.8646,10.2292 49.6875,10 C49.5521,10.0104 49.4193,10.0156 49.2891,10.0156 C49.1589,10.0156 49.026,10.0156 48.8906,10.0156 L47.6094,10.0156 L47.6094,14 L46.1875,14 L46.1875,3.96875 C46.5938,3.875 47.0417,3.8099 47.5312,3.77344 C48.0208,3.73698 48.474,3.71875 48.8906,3.71875 C50.3177,3.71875 51.4062,3.98958 52.1562,4.53125 C52.9062,5.07292 53.2812,5.875 53.2812,6.9375 C53.2812,7.61458 53.1016,8.19271 52.7422,8.67188 C52.3828,9.15104 51.8594,9.51042 51.1719,9.75 M49,4.96875 C48.3958,4.96875 47.9323,4.98438 47.6094,5.01562 L47.6094,8.84375 L48.625,8.84375 C49.1146,8.84375 49.5547,8.82031 49.9453,8.77344 C50.3359,8.72656 50.6667,8.63542 50.9375,8.5 C51.2083,8.36458 51.4167,8.17188 51.5625,7.92188 C51.7083,7.67188 51.7812,7.33854 51.7812,6.92188 C51.7812,6.54688 51.7083,6.23177 51.5625,5.97656 C51.4167,5.72135 51.2188,5.52083 50.9688,5.375 C50.7188,5.22917 50.4245,5.125 50.0859,5.0625 C49.7474,5 49.3854,4.96875 49,4.96875 M55,8.90625 C55,8.03125 55.1302,7.26302 55.3906,6.60156 C55.651,5.9401 56.0026,5.38542 56.4453,4.9375 C56.888,4.48958 57.4062,4.15365 58,3.92969 C58.5938,3.70573 59.224,3.59375 59.8906,3.59375 C60.5469,3.59375 61.1641,3.70573 61.7422,3.92969 C62.3203,4.15365 62.8307,4.48958 63.2734,4.9375 C63.7161,5.38542 64.0677,5.9401 64.3281,6.60156 C64.5885,7.26302 64.7188,8.03125 64.7188,8.90625 C64.7188,9.78125 64.5885,10.5495 64.3281,11.2109 C64.0677,11.8724 63.7161,12.4271 63.2734,12.875 C62.8307,13.3229 62.3203,13.6589 61.7422,13.8828 C61.1641,14.1068 60.5469,14.2188 59.8906,14.2188 C59.224,14.2188 58.5938,14.1068 58,13.8828 C57.4062,13.6589 56.888,13.3229 56.4453,12.875 C56.0026,12.4271 55.651,11.8724 55.3906,11.2109 C55.1302,10.5495 55,9.78125 55,8.90625 M56.5,8.90625 C56.5,9.52083 56.5781,10.0807 56.7344,10.5859 C56.8906,11.0911 57.112,11.5208 57.3984,11.875 C57.6849,12.2292 58.0365,12.5 58.4531,12.6875 C58.8698,12.875 59.3385,12.9688 59.8594,12.9688 C60.3698,12.9688 60.8307,12.875 61.2422,12.6875 C61.6536,12.5 62.0052,12.2292 62.2969,11.875 C62.5885,11.5208 62.8125,11.0911 62.9688,10.5859 C63.125,10.0807 63.2031,9.52083 63.2031,8.90625 C63.2031,8.29167 63.125,7.73177 62.9688,7.22656 C62.8125,6.72135 62.5885,6.29167 62.2969,5.9375 C62.0052,5.58333 61.6536,5.3125 61.2422,5.125 C60.8307,4.9375 60.3698,4.84375 59.8594,4.84375 C59.3385,4.84375 58.8698,4.9375 58.4531,5.125 C58.0365,5.3125 57.6849,5.58333 57.3984,5.9375 C57.112,6.29167 56.8906,6.72135 56.7344,7.22656 C56.5781,7.73177 56.5,8.29167 56.5,8.90625 M69.1719,12.9844 C70.6615,12.9844 71.4062,12.474 71.4062,11.4531 C71.4062,11.1406 71.3411,10.875 71.2109,10.6562 C71.0807,10.4375 70.901,10.2474 70.6719,10.0859 C70.4427,9.92448 70.1849,9.78646 69.8984,9.67188 C69.612,9.55729 69.3073,9.4375 68.9844,9.3125 C68.6094,9.1875 68.2552,9.04427 67.9219,8.88281 C67.5885,8.72135 67.3021,8.53125 67.0625,8.3125 C66.8229,8.09375 66.6302,7.83333 66.4844,7.53125 C66.3385,7.22917 66.2656,6.85938 66.2656,6.42188 C66.2656,5.53646 66.5703,4.84375 67.1797,4.34375 C67.7891,3.84375 68.625,3.59375 69.6875,3.59375 C70.3021,3.59375 70.862,3.65885 71.3672,3.78906 C71.8724,3.91927 72.2448,4.0625 72.4844,4.21875 L72.0312,5.39062 C71.8229,5.25521 71.5156,5.1276 71.1094,5.00781 C70.7031,4.88802 70.2292,4.82812 69.6875,4.82812 C69.4167,4.82812 69.1641,4.85677 68.9297,4.91406 C68.6953,4.97135 68.4896,5.0599 68.3125,5.17969 C68.1354,5.29948 67.9948,5.44792 67.8906,5.625 C67.7865,5.80208 67.7344,6.01562 67.7344,6.26562 C67.7344,6.53646 67.7891,6.76562 67.8984,6.95312 C68.0078,7.14062 68.1589,7.30469 68.3516,7.44531 C68.5443,7.58594 68.7708,7.71615 69.0312,7.83594 C69.2917,7.95573 69.5781,8.07292 69.8906,8.1875 C70.3385,8.36458 70.7448,8.54167 71.1094,8.71875 C71.474,8.89583 71.7917,9.10677 72.0625,9.35156 C72.3333,9.59635 72.5417,9.88802 72.6875,10.2266 C72.8333,10.5651 72.9062,10.974 72.9062,11.4531 C72.9062,12.3385 72.5807,13.0208 71.9297,13.5 C71.2786,13.9792 70.3594,14.2188 69.1719,14.2188 C68.776,14.2188 68.4089,14.1927 68.0703,14.1406 C67.7318,14.0885 67.4297,14.026 67.1641,13.9531 C66.8984,13.8802 66.6719,13.8021 66.4844,13.7188 C66.2969,13.6354 66.1458,13.5625 66.0312,13.5 L66.4531,12.3281 C66.6823,12.4531 67.026,12.5938 67.4844,12.75 C67.9427,12.9062 68.5052,12.9844 69.1719,12.9844 "/>
</g>

<g fill="none" stroke="#000000" stroke-opacity="1" stroke-width="1" stroke-linecap="square" stroke-linejoin="bevel" transform="matrix(2,0,0,2,53.6578,87.9999)"
font-family="Ubuntu" font-size="11" font-weight="400" font-style="normal" 
>
</g>

<g fill="none" stroke="#000000" stroke-opacity="1" stroke-width="1" stroke-linecap="square" stroke-linejoin="bevel" transform="matrix(2,0,0,2,53.6578,87.9999)"
font-family="Ubuntu" font-size="11" font-weight="400" font-style="normal" 
>
</g>

<g fill="none" stroke="#000000" stroke-opacity="1" stroke-width="1" stroke-linecap="square" stroke-linejoin="bevel" transform="matrix(2,0,0,2,-1.9984,173)"
font-family="Ubuntu" font-size="11" font-weight="400" font-style="normal" 
>
</g>

<g fill="none" stroke="#000000" stroke-opacity="1" stroke-width="1" stroke-linecap="square" stroke-linejoin="bevel" transform="matrix(2,0,0,2,-1.9984,173)"
font-family="Ubuntu" font-size="11" font-weight="400" font-style="normal" 
>
</g>

<g fill="none" stroke="#000000" stroke-opacity="1" stroke-width="1" stroke-linecap="square" stroke-linejoin="bevel" transform="matrix(2,0,0,2,-1.9984,173)"
font-family="Ubuntu" font-size="11" font-weight="400" font-style="normal" 
>
</g>

<g fill="none" stroke="#000000" stroke-opacity="1" stroke-width="1" stroke-linecap="square" stroke-linejoin="round" transform="matrix(2,0,0,2,-1.9984,173)"
font-family="Ubuntu" font-size="11" font-weight="400" font-style="normal" 
>
<path vector-effect="none" fill-rule="evenodd" d="M544.499,-34 C544.499,-24.0589 512.936,-16 474,-16 C435.064,-16 403.501,-24.0589 403.501,-34 C403.501,-43.9411 435.064,-52 474,-52 C512.936,-52 544.499,-43.9411 544.499,-34 "/>
</g>

<g fill="none" stroke="#000000" stroke-opacity="1" stroke-width="1" stroke-linecap="square" stroke-linejoin="bevel" transform="matrix(2,0,0,2,-1.9984,173)"
font-family="Ubuntu" font-size="11" font-weight="400" font-style="normal" 
>
</g>

<g fill="none" stroke="#000000" stroke-opacity="1" stroke-width="1" stroke-linecap="square" stroke-linejoin="bevel" transform="matrix(2,0,0,2,861.938,87.9999)"
font-family="Ubuntu" font-size="11" font-weight="400" font-style="normal" 
>
</g>

<g fill="none" stroke="#000000" stroke-opacity="1" stroke-width="1" stroke-linecap="square" stroke-linejoin="bevel" transform="matrix(2,0,0,2,861.938,87.9999)"
font-family="Ubuntu" font-size="11" font-weight="400" font-style="normal" 
>
</g>

<g fill="#000000" fill-opacity="1" stroke="#000000" stroke-opacity="1" stroke-width="1" stroke-linecap="square" stroke-linejoin="round" transform="matrix(2,0,0,2,861.938,87.9999)"
font-family="Ubuntu" font-size="11" font-weight="400" font-style="normal" 
>
<path vector-effect="non-scaling-stroke" fill-rule="nonzero" d="M1.04688,16.7188 L-0.34375,16.7188 L4.625,2.5 L6,2.5 L1.04688,16.7188 M9.39062,13.0156 C9.71354,13.0156 10,13.0078 10.25,12.9922 C10.5,12.9766 10.7083,12.9479 10.875,12.9062 L10.875,10.6406 C10.7708,10.5885 10.6094,10.5469 10.3906,10.5156 C10.1719,10.4844 9.90625,10.4688 9.59375,10.4688 C9.38542,10.4688 9.16667,10.4818 8.9375,10.5078 C8.70833,10.5339 8.4974,10.5938 8.30469,10.6875 C8.11198,10.7812 7.95312,10.9089 7.82812,11.0703 C7.70312,11.2318 7.64062,11.4427 7.64062,11.7031 C7.64062,12.1927 7.79688,12.5339 8.10938,12.7266 C8.42188,12.9193 8.84896,13.0156 9.39062,13.0156 M9.26562,6.17188 C9.81771,6.17188 10.2812,6.24479 10.6562,6.39062 C11.0312,6.53646 11.3333,6.73698 11.5625,6.99219 C11.7917,7.2474 11.9557,7.55469 12.0547,7.91406 C12.1536,8.27344 12.2031,8.66667 12.2031,9.09375 L12.2031,13.875 C12.0885,13.8854 11.9245,13.9089 11.7109,13.9453 C11.4974,13.9818 11.2604,14.0156 11,14.0469 C10.7396,14.0781 10.4557,14.1042 10.1484,14.125 C9.84115,14.1458 9.53125,14.1562 9.21875,14.1562 C8.79167,14.1562 8.39844,14.112 8.03906,14.0234 C7.67969,13.9349 7.36719,13.7969 7.10156,13.6094 C6.83594,13.4219 6.63021,13.1719 6.48438,12.8594 C6.33854,12.5469 6.26562,12.1667 6.26562,11.7188 C6.26562,11.3021 6.35156,10.9427 6.52344,10.6406 C6.69531,10.3385 6.92708,10.0938 7.21875,9.90625 C7.51042,9.71875 7.85156,9.58073 8.24219,9.49219 C8.63281,9.40365 9.04167,9.35938 9.46875,9.35938 C9.61458,9.35938 9.76042,9.36719 9.90625,9.38281 C10.0521,9.39844 10.1901,9.41927 10.3203,9.44531 C10.4505,9.47135 10.5651,9.49219 10.6641,9.50781 C10.763,9.52344 10.8333,9.53646 10.875,9.54688 L10.875,9.17188 C10.875,8.94271 10.849,8.71875 10.7969,8.5 C10.7448,8.28125 10.6562,8.08594 10.5312,7.91406 C10.4062,7.74219 10.2344,7.60417 10.0156,7.5 C9.79688,7.39583 9.51042,7.34375 9.15625,7.34375 C8.69792,7.34375 8.30208,7.3776 7.96875,7.44531 C7.63542,7.51302 7.38542,7.57812 7.21875,7.64062 L7.04688,6.51562 C7.22396,6.43229 7.51823,6.35417 7.92969,6.28125 C8.34115,6.20833 8.78646,6.17188 9.26562,6.17188 M15.8281,14 L14.4531,14 L14.4531,6.35938 L15.8281,6.35938 L15.8281,14 M15.1406,4.98438 C14.8906,4.98438 14.6797,4.90365 14.5078,4.74219 C14.3359,4.58073 14.25,4.36458 14.25,4.09375 C14.25,3.82292 14.3359,3.60677 14.5078,3.44531 C14.6797,3.28385 14.8906,3.20312 15.1406,3.20312 C15.3802,3.20312 15.5859,3.28385 15.7578,3.44531 C15.9297,3.60677 16.0156,3.82292 16.0156,4.09375 C16.0156,4.36458 15.9297,4.58073 15.7578,4.74219 C15.5859,4.90365 15.3802,4.98438 15.1406,4.98438 M19.5312,6.70312 C19.6979,6.59896 19.9505,6.48698 20.2891,6.36719 C20.6276,6.2474 21.0156,6.1875 21.4531,6.1875 C21.9948,6.1875 22.4792,6.28646 22.9062,6.48438 C23.3333,6.68229 23.6953,6.95573 23.9922,7.30469 C24.2891,7.65365 24.513,8.07292 24.6641,8.5625 C24.8151,9.05208 24.8906,9.59375 24.8906,10.1875 C24.8906,10.8021 24.7995,11.3568 24.6172,11.8516 C24.4349,12.3464 24.1771,12.7656 23.8438,13.1094 C23.5104,13.4531 23.1094,13.7161 22.6406,13.8984 C22.1719,14.0807 21.6406,14.1719 21.0469,14.1719 C20.4115,14.1719 19.849,14.1276 19.3594,14.0391 C18.8698,13.9505 18.4688,13.8646 18.1562,13.7812 L18.1562,2.84375 L19.5312,2.60938 L19.5312,6.70312 M19.5312,12.8125 C19.6667,12.8542 19.8594,12.8906 20.1094,12.9219 C20.3594,12.9531 20.6719,12.9688 21.0469,12.9688 C21.776,12.9688 22.362,12.7266 22.8047,12.2422 C23.2474,11.7578 23.4688,11.0729 23.4688,10.1875 C23.4688,9.79167 23.4297,9.42188 23.3516,9.07812 C23.2734,8.73438 23.1458,8.4375 22.9688,8.1875 C22.7917,7.9375 22.5625,7.74219 22.2812,7.60156 C22,7.46094 21.6667,7.39062 21.2812,7.39062 C20.9062,7.39062 20.5625,7.45573 20.25,7.58594 C19.9375,7.71615 19.6979,7.84896 19.5312,7.98438 L19.5312,12.8125 M33.5469,10.1875 C33.5469,10.7917 33.4583,11.3385 33.2812,11.8281 C33.1042,12.3177 32.8568,12.7396 32.5391,13.0938 C32.2214,13.4479 31.8411,13.7188 31.3984,13.9062 C30.9557,14.0938 30.474,14.1875 29.9531,14.1875 C29.4427,14.1875 28.9661,14.0938 28.5234,13.9062 C28.0807,13.7188 27.7005,13.4479 27.3828,13.0938 C27.0651,12.7396 26.8177,12.3177 26.6406,11.8281 C26.4635,11.3385 26.375,10.7917 26.375,10.1875 C26.375,9.58333 26.4635,9.03646 26.6406,8.54688 C26.8177,8.05729 27.0651,7.63542 27.3828,7.28125 C27.7005,6.92708 28.0807,6.65365 28.5234,6.46094 C28.9661,6.26823 29.4427,6.17188 29.9531,6.17188 C30.474,6.17188 30.9557,6.26823 31.3984,6.46094 C31.8411,6.65365 32.2214,6.92708 32.5391,7.28125 C32.8568,7.63542 33.1042,8.05729 33.2812,8.54688 C33.4583,9.03646 33.5469,9.58333 33.5469,10.1875 M32.1094,10.1875 C32.1094,9.32292 31.9167,8.63802 31.5312,8.13281 C31.1458,7.6276 30.6198,7.375 29.9531,7.375 C29.2865,7.375 28.7604,7.6276 28.375,8.13281 C27.9896,8.63802 27.7969,9.32292 27.7969,10.1875 C27.7969,11.0417 27.9896,11.7214 28.375,12.2266 C28.7604,12.7318 29.2865,12.9844 29.9531,12.9844 C30.6198,12.9844 31.1458,12.7318 31.5312,12.2266 C31.9167,11.7214 32.1094,11.0417 32.1094,10.1875 M34.2188,15.5625 L41.5625,15.5625 L41.5625,16.7188 L34.2188,16.7188 L34.2188,15.5625 M44.4375,13.0156 C45,13.0156 45.4141,12.9427 45.6797,12.7969 C45.9453,12.651 46.0781,12.4167 46.0781,12.0938 C46.0781,11.7604 45.9479,11.4948 45.6875,11.2969 C45.4271,11.099 44.9896,10.8802 44.375,10.6406 C44.0833,10.526 43.8021,10.4062 43.5312,10.2812 C43.2604,10.1562 43.0286,10.0104 42.8359,9.84375 C42.6432,9.67708 42.487,9.47656 42.3672,9.24219 C42.2474,9.00781 42.1875,8.71875 42.1875,8.375 C42.1875,7.69792 42.4375,7.16146 42.9375,6.76562 C43.4375,6.36979 44.1198,6.17188 44.9844,6.17188 C45.1927,6.17188 45.4062,6.1849 45.625,6.21094 C45.8438,6.23698 46.0469,6.26823 46.2344,6.30469 C46.4219,6.34115 46.5859,6.3776 46.7266,6.41406 C46.8672,6.45052 46.974,6.48438 47.0469,6.51562 L46.7969,7.6875 C46.651,7.61458 46.4219,7.53646 46.1094,7.45312 C45.7969,7.36979 45.4219,7.32812 44.9844,7.32812 C44.599,7.32812 44.2656,7.40365 43.9844,7.55469 C43.7031,7.70573 43.5625,7.94271 43.5625,8.26562 C43.5625,8.43229 43.5938,8.57812 43.6562,8.70312 C43.7188,8.82812 43.8151,8.94271 43.9453,9.04688 C44.0755,9.15104 44.2396,9.2474 44.4375,9.33594 C44.6354,9.42448 44.8698,9.51562 45.1406,9.60938 C45.5052,9.74479 45.8281,9.88021 46.1094,10.0156 C46.3906,10.151 46.6328,10.3047 46.8359,10.4766 C47.0391,10.6484 47.1953,10.8594 47.3047,11.1094 C47.4141,11.3594 47.4688,11.6667 47.4688,12.0312 C47.4688,12.7396 47.2057,13.2734 46.6797,13.6328 C46.1536,13.9922 45.4062,14.1719 44.4375,14.1719 C43.7604,14.1719 43.2318,14.1172 42.8516,14.0078 C42.4714,13.8984 42.2135,13.8125 42.0781,13.75 L42.3281,12.5781 C42.4844,12.6406 42.7344,12.7292 43.0781,12.8438 C43.4219,12.9583 43.875,13.0156 44.4375,13.0156 M48.7656,10.2031 C48.7656,9.52604 48.8646,8.9349 49.0625,8.42969 C49.2604,7.92448 49.5208,7.50521 49.8438,7.17188 C50.1667,6.83854 50.5391,6.58854 50.9609,6.42188 C51.3828,6.25521 51.8125,6.17188 52.25,6.17188 C53.2708,6.17188 54.0573,6.49219 54.6094,7.13281 C55.1615,7.77344 55.4375,8.75 55.4375,10.0625 C55.4375,10.125 55.4375,10.2031 55.4375,10.2969 C55.4375,10.3906 55.4323,10.474 55.4219,10.5469 L50.1875,10.5469 C50.25,11.3385 50.4818,11.9401 50.8828,12.3516 C51.2839,12.763 51.9115,12.9688 52.7656,12.9688 C53.2448,12.9688 53.6484,12.9271 53.9766,12.8438 C54.3047,12.7604 54.5521,12.6823 54.7188,12.6094 L54.9062,13.75 C54.7396,13.8333 54.4479,13.9245 54.0312,14.0234 C53.6146,14.1224 53.1406,14.1719 52.6094,14.1719 C51.9427,14.1719 51.3672,14.0729 50.8828,13.875 C50.3984,13.6771 50,13.401 49.6875,13.0469 C49.375,12.6927 49.1432,12.2734 48.9922,11.7891 C48.8411,11.3047 48.7656,10.776 48.7656,10.2031 M54.0156,9.45312 C54.0156,8.83854 53.8568,8.33073 53.5391,7.92969 C53.2214,7.52865 52.7865,7.32812 52.2344,7.32812 C51.9219,7.32812 51.6458,7.39062 51.4062,7.51562 C51.1667,7.64062 50.9635,7.80208 50.7969,8 C50.6302,8.19792 50.5,8.42188 50.4062,8.67188 C50.3125,8.92188 50.25,9.18229 50.2188,9.45312 L54.0156,9.45312 M60.2031,6.20312 C60.3177,6.20312 60.4505,6.21094 60.6016,6.22656 C60.7526,6.24219 60.901,6.26302 61.0469,6.28906 C61.1927,6.3151 61.3281,6.33854 61.4531,6.35938 C61.5781,6.38021 61.6667,6.40104 61.7188,6.42188 L61.4844,7.60938 C61.3802,7.57812 61.2031,7.53385 60.9531,7.47656 C60.7031,7.41927 60.3854,7.39062 60,7.39062 C59.7396,7.39062 59.4844,7.41927 59.2344,7.47656 C58.9844,7.53385 58.8229,7.56771 58.75,7.57812 L58.75,14 L57.375,14 L57.375,6.6875 C57.6979,6.57292 58.099,6.46354 58.5781,6.35938 C59.0573,6.25521 59.599,6.20312 60.2031,6.20312 M69,6.35938 C68.6146,7.79688 68.1667,9.16927 67.6562,10.4766 C67.1458,11.7839 66.6458,12.9583 66.1562,14 L64.9375,14 C64.4583,12.9583 63.9609,11.7839 63.4453,10.4766 C62.9297,9.16927 62.4792,7.79688 62.0938,6.35938 L63.5625,6.35938 C63.6771,6.84896 63.8151,7.36458 63.9766,7.90625 C64.138,8.44792 64.3099,8.98438 64.4922,9.51562 C64.6745,10.0469 64.8594,10.5625 65.0469,11.0625 C65.2344,11.5625 65.4115,12.0104 65.5781,12.4062 C65.7448,12.0104 65.9219,11.5625 66.1094,11.0625 C66.2969,10.5625 66.4792,10.0469 66.6562,9.51562 C66.8333,8.98438 67.0026,8.44792 67.1641,7.90625 C67.3255,7.36458 67.4688,6.84896 67.5938,6.35938 L69,6.35938 M69.9688,10.2031 C69.9688,9.52604 70.0677,8.9349 70.2656,8.42969 C70.4635,7.92448 70.724,7.50521 71.0469,7.17188 C71.3698,6.83854 71.7422,6.58854 72.1641,6.42188 C72.5859,6.25521 73.0156,6.17188 73.4531,6.17188 C74.474,6.17188 75.2604,6.49219 75.8125,7.13281 C76.3646,7.77344 76.6406,8.75 76.6406,10.0625 C76.6406,10.125 76.6406,10.2031 76.6406,10.2969 C76.6406,10.3906 76.6354,10.474 76.625,10.5469 L71.3906,10.5469 C71.4531,11.3385 71.6849,11.9401 72.0859,12.3516 C72.487,12.763 73.1146,12.9688 73.9688,12.9688 C74.4479,12.9688 74.8516,12.9271 75.1797,12.8438 C75.5078,12.7604 75.7552,12.6823 75.9219,12.6094 L76.1094,13.75 C75.9427,13.8333 75.651,13.9245 75.2344,14.0234 C74.8177,14.1224 74.3438,14.1719 73.8125,14.1719 C73.1458,14.1719 72.5703,14.0729 72.0859,13.875 C71.6016,13.6771 71.2031,13.401 70.8906,13.0469 C70.5781,12.6927 70.3464,12.2734 70.1953,11.7891 C70.0443,11.3047 69.9688,10.776 69.9688,10.2031 M75.2188,9.45312 C75.2188,8.83854 75.0599,8.33073 74.7422,7.92969 C74.4245,7.52865 73.9896,7.32812 73.4375,7.32812 C73.125,7.32812 72.849,7.39062 72.6094,7.51562 C72.3698,7.64062 72.1667,7.80208 72,8 C71.8333,8.19792 71.7031,8.42188 71.6094,8.67188 C71.5156,8.92188 71.4531,9.18229 71.4219,9.45312 L75.2188,9.45312 M81.4062,6.20312 C81.5208,6.20312 81.6536,6.21094 81.8047,6.22656 C81.9557,6.24219 82.1042,6.26302 82.25,6.28906 C82.3958,6.3151 82.5312,6.33854 82.6562,6.35938 C82.7812,6.38021 82.8698,6.40104 82.9219,6.42188 L82.6875,7.60938 C82.5833,7.57812 82.4062,7.53385 82.1562,7.47656 C81.9062,7.41927 81.5885,7.39062 81.2031,7.39062 C80.9427,7.39062 80.6875,7.41927 80.4375,7.47656 C80.1875,7.53385 80.026,7.56771 79.9531,7.57812 L79.9531,14 L78.5781,14 L78.5781,6.6875 C78.901,6.57292 79.3021,6.46354 79.7812,6.35938 C80.2604,6.25521 80.8021,6.20312 81.4062,6.20312 "/>
</g>

<g fill="none" stroke="#000000" stroke-opacity="1" stroke-width="1" stroke-linecap="square" stroke-linejoin="bevel" transform="matrix(2,0,0,2,861.938,87.9999)"
font-family="Ubuntu" font-size="11" font-weight="400" font-style="normal" 
>
</g>

<g fill="none" stroke="#000000" stroke-opacity="1" stroke-width="1" stroke-linecap="square" stroke-linejoin="bevel" transform="matrix(2,0,0,2,861.938,87.9999)"
font-family="Ubuntu" font-size="11" font-weight="400" font-style="normal" 
>
</g>

<g fill="none" stroke="#000000" stroke-opacity="1" stroke-width="1" stroke-linecap="square" stroke-linejoin="bevel" transform="matrix(2,0,0,2,-1.9984,173)"
font-family="Ubuntu" font-size="11" font-weight="400" font-style="normal" 
>
</g>

<g fill="none" stroke="#000000" stroke-opacity="1" stroke-width="1" stroke-linecap="square" stroke-linejoin="bevel" transform="matrix(2,0,0,2,-1.9984,173)"
font-family="Ubuntu" font-size="11" font-weight="400" font-style="normal" 
>
</g>

<g fill="none" stroke="#000000" stroke-opacity="1" stroke-width="1" stroke-linecap="square" stroke-linejoin="bevel" transform="matrix(2,0,0,2,-1.9984,173)"
font-family="Ubuntu" font-size="11" font-weight="400" font-style="normal" 
>
</g>

<g fill="none" stroke="#000000" stroke-opacity="1" stroke-width="1" stroke-linecap="square" stroke-linejoin="round" transform="matrix(2,0,0,2,-1.9984,173)"
font-family="Ubuntu" font-size="11" font-weight="400" font-style="normal" 
>
<path vector-effect="none" fill-rule="evenodd" d="M166.499,-51.5 L365.501,-51.5 L365.501,-16.5 L166.499,-16.5 L166.499,-51.5"/>
</g>

<g fill="none" stroke="#000000" stroke-opacity="1" stroke-width="1" stroke-linecap="square" stroke-linejoin="bevel" transform="matrix(2,0,0,2,-1.9984,173)"
font-family="Ubuntu" font-size="11" font-weight="400" font-style="normal" 
>
</g>

<g fill="none" stroke="#000000" stroke-opacity="1" stroke-width="1" stroke-linecap="square" stroke-linejoin="bevel" transform="matrix(2,0,0,2,343.939,87.9999)"
font-family="Ubuntu" font-size="11" font-weight="400" font-style="normal" 
>
</g>

<g fill="none" stroke="#000000" stroke-opacity="1" stroke-width="1" stroke-linecap="square" stroke-linejoin="bevel" transform="matrix(2,0,0,2,343.939,87.9999)"
font-family="Ubuntu" font-size="11" font-weight="400" font-style="normal" 
>
</g>

<g fill="#000000" fill-opacity="1" stroke="#000000" stroke-opacity="1" stroke-width="1" stroke-linecap="square" stroke-linejoin="round" transform="matrix(2,0,0,2,343.939,87.9999)"
font-family="Ubuntu" font-size="11" font-weight="400" font-style="normal" 
>
<path vector-effect="non-scaling-stroke" fill-rule="nonzero" d="M1.04688,16.7188 L-0.34375,16.7188 L4.625,2.5 L6,2.5 L1.04688,16.7188 M9.39062,13.0156 C9.71354,13.0156 10,13.0078 10.25,12.9922 C10.5,12.9766 10.7083,12.9479 10.875,12.9062 L10.875,10.6406 C10.7708,10.5885 10.6094,10.5469 10.3906,10.5156 C10.1719,10.4844 9.90625,10.4688 9.59375,10.4688 C9.38542,10.4688 9.16667,10.4818 8.9375,10.5078 C8.70833,10.5339 8.4974,10.5938 8.30469,10.6875 C8.11198,10.7812 7.95312,10.9089 7.82812,11.0703 C7.70312,11.2318 7.64062,11.4427 7.64062,11.7031 C7.64062,12.1927 7.79688,12.5339 8.10938,12.7266 C8.42188,12.9193 8.84896,13.0156 9.39062,13.0156 M9.26562,6.17188 C9.81771,6.17188 10.2812,6.24479 10.6562,6.39062 C11.0312,6.53646 11.3333,6.73698 11.5625,6.99219 C11.7917,7.2474 11.9557,7.55469 12.0547,7.91406 C12.1536,8.27344 12.2031,8.66667 12.2031,9.09375 L12.2031,13.875 C12.0885,13.8854 11.9245,13.9089 11.7109,13.9453 C11.4974,13.9818 11.2604,14.0156 11,14.0469 C10.7396,14.0781 10.4557,14.1042 10.1484,14.125 C9.84115,14.1458 9.53125,14.1562 9.21875,14.1562 C8.79167,14.1562 8.39844,14.112 8.03906,14.0234 C7.67969,13.9349 7.36719,13.7969 7.10156,13.6094 C6.83594,13.4219 6.63021,13.1719 6.48438,12.8594 C6.33854,12.5469 6.26562,12.1667 6.26562,11.7188 C6.26562,11.3021 6.35156,10.9427 6.52344,10.6406 C6.69531,10.3385 6.92708,10.0938 7.21875,9.90625 C7.51042,9.71875 7.85156,9.58073 8.24219,9.49219 C8.63281,9.40365 9.04167,9.35938 9.46875,9.35938 C9.61458,9.35938 9.76042,9.36719 9.90625,9.38281 C10.0521,9.39844 10.1901,9.41927 10.3203,9.44531 C10.4505,9.47135 10.5651,9.49219 10.6641,9.50781 C10.763,9.52344 10.8333,9.53646 10.875,9.54688 L10.875,9.17188 C10.875,8.94271 10.849,8.71875 10.7969,8.5 C10.7448,8.28125 10.6562,8.08594 10.5312,7.91406 C10.4062,7.74219 10.2344,7.60417 10.0156,7.5 C9.79688,7.39583 9.51042,7.34375 9.15625,7.34375 C8.69792,7.34375 8.30208,7.3776 7.96875,7.44531 C7.63542,7.51302 7.38542,7.57812 7.21875,7.64062 L7.04688,6.51562 C7.22396,6.43229 7.51823,6.35417 7.92969,6.28125 C8.34115,6.20833 8.78646,6.17188 9.26562,6.17188 M15.8281,14 L14.4531,14 L14.4531,6.35938 L15.8281,6.35938 L15.8281,14 M15.1406,4.98438 C14.8906,4.98438 14.6797,4.90365 14.5078,4.74219 C14.3359,4.58073 14.25,4.36458 14.25,4.09375 C14.25,3.82292 14.3359,3.60677 14.5078,3.44531 C14.6797,3.28385 14.8906,3.20312 15.1406,3.20312 C15.3802,3.20312 15.5859,3.28385 15.7578,3.44531 C15.9297,3.60677 16.0156,3.82292 16.0156,4.09375 C16.0156,4.36458 15.9297,4.58073 15.7578,4.74219 C15.5859,4.90365 15.3802,4.98438 15.1406,4.98438 M19.5312,6.70312 C19.6979,6.59896 19.9505,6.48698 20.2891,6.36719 C20.6276,6.2474 21.0156,6.1875 21.4531,6.1875 C21.9948,6.1875 22.4792,6.28646 22.9062,6.48438 C23.3333,6.68229 23.6953,6.95573 23.9922,7.30469 C24.2891,7.65365 24.513,8.07292 24.6641,8.5625 C24.8151,9.05208 24.8906,9.59375 24.8906,10.1875 C24.8906,10.8021 24.7995,11.3568 24.6172,11.8516 C24.4349,12.3464 24.1771,12.7656 23.8438,13.1094 C23.5104,13.4531 23.1094,13.7161 22.6406,13.8984 C22.1719,14.0807 21.6406,14.1719 21.0469,14.1719 C20.4115,14.1719 19.849,14.1276 19.3594,14.0391 C18.8698,13.9505 18.4688,13.8646 18.1562,13.7812 L18.1562,2.84375 L19.5312,2.60938 L19.5312,6.70312 M19.5312,12.8125 C19.6667,12.8542 19.8594,12.8906 20.1094,12.9219 C20.3594,12.9531 20.6719,12.9688 21.0469,12.9688 C21.776,12.9688 22.362,12.7266 22.8047,12.2422 C23.2474,11.7578 23.4688,11.0729 23.4688,10.1875 C23.4688,9.79167 23.4297,9.42188 23.3516,9.07812 C23.2734,8.73438 23.1458,8.4375 22.9688,8.1875 C22.7917,7.9375 22.5625,7.74219 22.2812,7.60156 C22,7.46094 21.6667,7.39062 21.2812,7.39062 C20.9062,7.39062 20.5625,7.45573 20.25,7.58594 C19.9375,7.71615 19.6979,7.84896 19.5312,7.98438 L19.5312,12.8125 M33.5469,10.1875 C33.5469,10.7917 33.4583,11.3385 33.2812,11.8281 C33.1042,12.3177 32.8568,12.7396 32.5391,13.0938 C32.2214,13.4479 31.8411,13.7188 31.3984,13.9062 C30.9557,14.0938 30.474,14.1875 29.9531,14.1875 C29.4427,14.1875 28.9661,14.0938 28.5234,13.9062 C28.0807,13.7188 27.7005,13.4479 27.3828,13.0938 C27.0651,12.7396 26.8177,12.3177 26.6406,11.8281 C26.4635,11.3385 26.375,10.7917 26.375,10.1875 C26.375,9.58333 26.4635,9.03646 26.6406,8.54688 C26.8177,8.05729 27.0651,7.63542 27.3828,7.28125 C27.7005,6.92708 28.0807,6.65365 28.5234,6.46094 C28.9661,6.26823 29.4427,6.17188 29.9531,6.17188 C30.474,6.17188 30.9557,6.26823 31.3984,6.46094 C31.8411,6.65365 32.2214,6.92708 32.5391,7.28125 C32.8568,7.63542 33.1042,8.05729 33.2812,8.54688 C33.4583,9.03646 33.5469,9.58333 33.5469,10.1875 M32.1094,10.1875 C32.1094,9.32292 31.9167,8.63802 31.5312,8.13281 C31.1458,7.6276 30.6198,7.375 29.9531,7.375 C29.2865,7.375 28.7604,7.6276 28.375,8.13281 C27.9896,8.63802 27.7969,9.32292 27.7969,10.1875 C27.7969,11.0417 27.9896,11.7214 28.375,12.2266 C28.7604,12.7318 29.2865,12.9844 29.9531,12.9844 C30.6198,12.9844 31.1458,12.7318 31.5312,12.2266 C31.9167,11.7214 32.1094,11.0417 32.1094,10.1875 M34.2188,15.5625 L41.5625,15.5625 L41.5625,16.7188 L34.2188,16.7188 L34.2188,15.5625 M44.4375,13.0156 C45,13.0156 45.4141,12.9427 45.6797,12.7969 C45.9453,12.651 46.0781,12.4167 46.0781,12.0938 C46.0781,11.7604 45.9479,11.4948 45.6875,11.2969 C45.4271,11.099 44.9896,10.8802 44.375,10.6406 C44.0833,10.526 43.8021,10.4062 43.5312,10.2812 C43.2604,10.1562 43.0286,10.0104 42.8359,9.84375 C42.6432,9.67708 42.487,9.47656 42.3672,9.24219 C42.2474,9.00781 42.1875,8.71875 42.1875,8.375 C42.1875,7.69792 42.4375,7.16146 42.9375,6.76562 C43.4375,6.36979 44.1198,6.17188 44.9844,6.17188 C45.1927,6.17188 45.4062,6.1849 45.625,6.21094 C45.8438,6.23698 46.0469,6.26823 46.2344,6.30469 C46.4219,6.34115 46.5859,6.3776 46.7266,6.41406 C46.8672,6.45052 46.974,6.48438 47.0469,6.51562 L46.7969,7.6875 C46.651,7.61458 46.4219,7.53646 46.1094,7.45312 C45.7969,7.36979 45.4219,7.32812 44.9844,7.32812 C44.599,7.32812 44.2656,7.40365 43.9844,7.55469 C43.7031,7.70573 43.5625,7.94271 43.5625,8.26562 C43.5625,8.43229 43.5938,8.57812 43.6562,8.70312 C43.7188,8.82812 43.8151,8.94271 43.9453,9.04688 C44.0755,9.15104 44.2396,9.2474 44.4375,9.33594 C44.6354,9.42448 44.8698,9.51562 45.1406,9.60938 C45.5052,9.74479 45.8281,9.88021 46.1094,10.0156 C46.3906,10.151 46.6328,10.3047 46.8359,10.4766 C47.0391,10.6484 47.1953,10.8594 47.3047,11.1094 C47.4141,11.3594 47.4688,11.6667 47.4688,12.0312 C47.4688,12.7396 47.2057,13.2734 46.6797,13.6328 C46.1536,13.9922 45.4062,14.1719 44.4375,14.1719 C43.7604,14.1719 43.2318,14.1172 42.8516,14.0078 C42.4714,13.8984 42.2135,13.8125 42.0781,13.75 L42.3281,12.5781 C42.4844,12.6406 42.7344,12.7292 43.0781,12.8438 C43.4219,12.9583 43.875,13.0156 44.4375,13.0156 M48.7656,10.2031 C48.7656,9.52604 48.8646,8.9349 49.0625,8.42969 C49.2604,7.92448 49.5208,7.50521 49.8438,7.17188 C50.1667,6.83854 50.5391,6.58854 50.9609,6.42188 C51.3828,6.25521 51.8125,6.17188 52.25,6.17188 C53.2708,6.17188 54.0573,6.49219 54.6094,7.13281 C55.1615,7.77344 55.4375,8.75 55.4375,10.0625 C55.4375,10.125 55.4375,10.2031 55.4375,10.2969 C55.4375,10.3906 55.4323,10.474 55.4219,10.5469 L50.1875,10.5469 C50.25,11.3385 50.4818,11.9401 50.8828,12.3516 C51.2839,12.763 51.9115,12.9688 52.7656,12.9688 C53.2448,12.9688 53.6484,12.9271 53.9766,12.8438 C54.3047,12.7604 54.5521,12.6823 54.7188,12.6094 L54.9062,13.75 C54.7396,13.8333 54.4479,13.9245 54.0312,14.0234 C53.6146,14.1224 53.1406,14.1719 52.6094,14.1719 C51.9427,14.1719 51.3672,14.0729 50.8828,13.875 C50.3984,13.6771 50,13.401 49.6875,13.0469 C49.375,12.6927 49.1432,12.2734 48.9922,11.7891 C48.8411,11.3047 48.7656,10.776 48.7656,10.2031 M54.0156,9.45312 C54.0156,8.83854 53.8568,8.33073 53.5391,7.92969 C53.2214,7.52865 52.7865,7.32812 52.2344,7.32812 C51.9219,7.32812 51.6458,7.39062 51.4062,7.51562 C51.1667,7.64062 50.9635,7.80208 50.7969,8 C50.6302,8.19792 50.5,8.42188 50.4062,8.67188 C50.3125,8.92188 50.25,9.18229 50.2188,9.45312 L54.0156,9.45312 M60.2031,6.20312 C60.3177,6.20312 60.4505,6.21094 60.6016,6.22656 C60.7526,6.24219 60.901,6.26302 61.0469,6.28906 C61.1927,6.3151 61.3281,6.33854 61.4531,6.35938 C61.5781,6.38021 61.6667,6.40104 61.7188,6.42188 L61.4844,7.60938 C61.3802,7.57812 61.2031,7.53385 60.9531,7.47656 C60.7031,7.41927 60.3854,7.39062 60,7.39062 C59.7396,7.39062 59.4844,7.41927 59.2344,7.47656 C58.9844,7.53385 58.8229,7.56771 58.75,7.57812 L58.75,14 L57.375,14 L57.375,6.6875 C57.6979,6.57292 58.099,6.46354 58.5781,6.35938 C59.0573,6.25521 59.599,6.20312 60.2031,6.20312 M69,6.35938 C68.6146,7.79688 68.1667,9.16927 67.6562,10.4766 C67.1458,11.7839 66.6458,12.9583 66.1562,14 L64.9375,14 C64.4583,12.9583 63.9609,11.7839 63.4453,10.4766 C62.9297,9.16927 62.4792,7.79688 62.0938,6.35938 L63.5625,6.35938 C63.6771,6.84896 63.8151,7.36458 63.9766,7.90625 C64.138,8.44792 64.3099,8.98438 64.4922,9.51562 C64.6745,10.0469 64.8594,10.5625 65.0469,11.0625 C65.2344,11.5625 65.4115,12.0104 65.5781,12.4062 C65.7448,12.0104 65.9219,11.5625 66.1094,11.0625 C66.2969,10.5625 66.4792,10.0469 66.6562,9.51562 C66.8333,8.98438 67.0026,8.44792 67.1641,7.90625 C67.3255,7.36458 67.4688,6.84896 67.5938,6.35938 L69,6.35938 M69.9688,10.2031 C69.9688,9.52604 70.0677,8.9349 70.2656,8.42969 C70.4635,7.92448 70.724,7.50521 71.0469,7.17188 C71.3698,6.83854 71.7422,6.58854 72.1641,6.42188 C72.5859,6.25521 73.0156,6.17188 73.4531,6.17188 C74.474,6.17188 75.2604,6.49219 75.8125,7.13281 C76.3646,7.77344 76.6406,8.75 76.6406,10.0625 C76.6406,10.125 76.6406,10.2031 76.6406,10.2969 C76.6406,10.3906 76.6354,10.474 76.625,10.5469 L71.3906,10.5469 C71.4531,11.3385 71.6849,11.9401 72.0859,12.3516 C72.487,12.763 73.1146,12.9688 73.9688,12.9688 C74.4479,12.9688 74.8516,12.9271 75.1797,12.8438 C75.5078,12.7604 75.7552,12.6823 75.9219,12.6094 L76.1094,13.75 C75.9427,13.8333 75.651,13.9245 75.2344,14.0234 C74.8177,14.1224 74.3438,14.1719 73.8125,14.1719 C73.1458,14.1719 72.5703,14.0729 72.0859,13.875 C71.6016,13.6771 71.2031,13.401 70.8906,13.0469 C70.5781,12.6927 70.3464,12.2734 70.1953,11.7891 C70.0443,11.3047 69.9688,10.776 69.9688,10.2031 M75.2188,9.45312 C75.2188,8.83854 75.0599,8.33073 74.7422,7.92969 C74.4245,7.52865 73.9896,7.32812 73.4375,7.32812 C73.125,7.32812 72.849,7.39062 72.6094,7.51562 C72.3698,7.64062 72.1667,7.80208 72,8 C71.8333,8.19792 71.7031,8.42188 71.6094,8.67188 C71.5156,8.92188 71.4531,9.18229 71.4219,9.45312 L75.2188,9.45312 M81.4062,6.20312 C81.5208,6.20312 81.6536,6.21094 81.8047,6.22656 C81.9557,6.24219 82.1042,6.26302 82.25,6.28906 C82.3958,6.3151 82.5312,6.33854 82.6562,6.35938 C82.7812,6.38021 82.8698,6.40104 82.9219,6.42188 L82.6875,7.60938 C82.5833,7.57812 82.4062,7.53385 82.1562,7.47656 C81.9062,7.41927 81.5885,7.39062 81.2031,7.39062 C80.9427,7.39062 80.6875,7.41927 80.4375,7.47656 C80.1875,7.53385 80.026,7.56771 79.9531,7.57812 L79.9531,14 L78.5781,14 L78.5781,6.6875 C78.901,6.57292 79.3021,6.46354 79.7812,6.35938 C80.2604,6.25521 80.8021,6.20312 81.4062,6.20312 M83.1094,16.7188 L81.7188,16.7188 L86.6875,2.5 L88.0625,2.5 L83.1094,16.7188 M91.4531,13.0156 C91.776,13.0156 92.0625,13.0078 92.3125,12.9922 C92.5625,12.9766 92.7708,12.9479 92.9375,12.9062 L92.9375,10.6406 C92.8333,10.5885 92.6719,10.5469 92.4531,10.5156 C92.2344,10.4844 91.9688,10.4688 91.6562,10.4688 C91.4479,10.4688 91.2292,10.4818 91,10.5078 C90.7708,10.5339 90.5599,10.5938 90.3672,10.6875 C90.1745,10.7812 90.0156,10.9089 89.8906,11.0703 C89.7656,11.2318 89.7031,11.4427 89.7031,11.7031 C89.7031,12.1927 89.8594,12.5339 90.1719,12.7266 C90.4844,12.9193 90.9115,13.0156 91.4531,13.0156 M91.3281,6.17188 C91.8802,6.17188 92.3438,6.24479 92.7188,6.39062 C93.0938,6.53646 93.3958,6.73698 93.625,6.99219 C93.8542,7.2474 94.0182,7.55469 94.1172,7.91406 C94.2161,8.27344 94.2656,8.66667 94.2656,9.09375 L94.2656,13.875 C94.151,13.8854 93.987,13.9089 93.7734,13.9453 C93.5599,13.9818 93.3229,14.0156 93.0625,14.0469 C92.8021,14.0781 92.5182,14.1042 92.2109,14.125 C91.9036,14.1458 91.5938,14.1562 91.2812,14.1562 C90.8542,14.1562 90.4609,14.112 90.1016,14.0234 C89.7422,13.9349 89.4297,13.7969 89.1641,13.6094 C88.8984,13.4219 88.6927,13.1719 88.5469,12.8594 C88.401,12.5469 88.3281,12.1667 88.3281,11.7188 C88.3281,11.3021 88.4141,10.9427 88.5859,10.6406 C88.7578,10.3385 88.9896,10.0938 89.2812,9.90625 C89.5729,9.71875 89.9141,9.58073 90.3047,9.49219 C90.6953,9.40365 91.1042,9.35938 91.5312,9.35938 C91.6771,9.35938 91.8229,9.36719 91.9688,9.38281 C92.1146,9.39844 92.2526,9.41927 92.3828,9.44531 C92.513,9.47135 92.6276,9.49219 92.7266,9.50781 C92.8255,9.52344 92.8958,9.53646 92.9375,9.54688 L92.9375,9.17188 C92.9375,8.94271 92.9115,8.71875 92.8594,8.5 C92.8073,8.28125 92.7188,8.08594 92.5938,7.91406 C92.4688,7.74219 92.2969,7.60417 92.0781,7.5 C91.8594,7.39583 91.5729,7.34375 91.2188,7.34375 C90.7604,7.34375 90.3646,7.3776 90.0312,7.44531 C89.6979,7.51302 89.4479,7.57812 89.2812,7.64062 L89.1094,6.51562 C89.2865,6.43229 89.5807,6.35417 89.9922,6.28125 C90.4036,6.20833 90.849,6.17188 91.3281,6.17188 M97.8906,14 L96.5156,14 L96.5156,6.35938 L97.8906,6.35938 L97.8906,14 M97.2031,4.98438 C96.9531,4.98438 96.7422,4.90365 96.5703,4.74219 C96.3984,4.58073 96.3125,4.36458 96.3125,4.09375 C96.3125,3.82292 96.3984,3.60677 96.5703,3.44531 C96.7422,3.28385 96.9531,3.20312 97.2031,3.20312 C97.4427,3.20312 97.6484,3.28385 97.8203,3.44531 C97.9922,3.60677 98.0781,3.82292 98.0781,4.09375 C98.0781,4.36458 97.9922,4.58073 97.8203,4.74219 C97.6484,4.90365 97.4427,4.98438 97.2031,4.98438 M101.594,6.70312 C101.76,6.59896 102.013,6.48698 102.352,6.36719 C102.69,6.2474 103.078,6.1875 103.516,6.1875 C104.057,6.1875 104.542,6.28646 104.969,6.48438 C105.396,6.68229 105.758,6.95573 106.055,7.30469 C106.352,7.65365 106.576,8.07292 106.727,8.5625 C106.878,9.05208 106.953,9.59375 106.953,10.1875 C106.953,10.8021 106.862,11.3568 106.68,11.8516 C106.497,12.3464 106.24,12.7656 105.906,13.1094 C105.573,13.4531 105.172,13.7161 104.703,13.8984 C104.234,14.0807 103.703,14.1719 103.109,14.1719 C102.474,14.1719 101.911,14.1276 101.422,14.0391 C100.932,13.9505 100.531,13.8646 100.219,13.7812 L100.219,2.84375 L101.594,2.60938 L101.594,6.70312 M101.594,12.8125 C101.729,12.8542 101.922,12.8906 102.172,12.9219 C102.422,12.9531 102.734,12.9688 103.109,12.9688 C103.839,12.9688 104.424,12.7266 104.867,12.2422 C105.31,11.7578 105.531,11.0729 105.531,10.1875 C105.531,9.79167 105.492,9.42188 105.414,9.07812 C105.336,8.73438 105.208,8.4375 105.031,8.1875 C104.854,7.9375 104.625,7.74219 104.344,7.60156 C104.062,7.46094 103.729,7.39062 103.344,7.39062 C102.969,7.39062 102.625,7.45573 102.312,7.58594 C102,7.71615 101.76,7.84896 101.594,7.98438 L101.594,12.8125 M115.609,10.1875 C115.609,10.7917 115.521,11.3385 115.344,11.8281 C115.167,12.3177 114.919,12.7396 114.602,13.0938 C114.284,13.4479 113.904,13.7188 113.461,13.9062 C113.018,14.0938 112.536,14.1875 112.016,14.1875 C111.505,14.1875 111.029,14.0938 110.586,13.9062 C110.143,13.7188 109.763,13.4479 109.445,13.0938 C109.128,12.7396 108.88,12.3177 108.703,11.8281 C108.526,11.3385 108.438,10.7917 108.438,10.1875 C108.438,9.58333 108.526,9.03646 108.703,8.54688 C108.88,8.05729 109.128,7.63542 109.445,7.28125 C109.763,6.92708 110.143,6.65365 110.586,6.46094 C111.029,6.26823 111.505,6.17188 112.016,6.17188 C112.536,6.17188 113.018,6.26823 113.461,6.46094 C113.904,6.65365 114.284,6.92708 114.602,7.28125 C114.919,7.63542 115.167,8.05729 115.344,8.54688 C115.521,9.03646 115.609,9.58333 115.609,10.1875 M114.172,10.1875 C114.172,9.32292 113.979,8.63802 113.594,8.13281 C113.208,7.6276 112.682,7.375 112.016,7.375 C111.349,7.375 110.823,7.6276 110.438,8.13281 C110.052,8.63802 109.859,9.32292 109.859,10.1875 C109.859,11.0417 110.052,11.7214 110.438,12.2266 C110.823,12.7318 111.349,12.9844 112.016,12.9844 C112.682,12.9844 113.208,12.7318 113.594,12.2266 C113.979,11.7214 114.172,11.0417 114.172,10.1875 M117.391,16.7188 L116,16.7188 L120.969,2.5 L122.344,2.5 L117.391,16.7188 M124.922,13.0156 C125.484,13.0156 125.898,12.9427 126.164,12.7969 C126.43,12.651 126.562,12.4167 126.562,12.0938 C126.562,11.7604 126.432,11.4948 126.172,11.2969 C125.911,11.099 125.474,10.8802 124.859,10.6406 C124.568,10.526 124.286,10.4062 124.016,10.2812 C123.745,10.1562 123.513,10.0104 123.32,9.84375 C123.128,9.67708 122.971,9.47656 122.852,9.24219 C122.732,9.00781 122.672,8.71875 122.672,8.375 C122.672,7.69792 122.922,7.16146 123.422,6.76562 C123.922,6.36979 124.604,6.17188 125.469,6.17188 C125.677,6.17188 125.891,6.1849 126.109,6.21094 C126.328,6.23698 126.531,6.26823 126.719,6.30469 C126.906,6.34115 127.07,6.3776 127.211,6.41406 C127.352,6.45052 127.458,6.48438 127.531,6.51562 L127.281,7.6875 C127.135,7.61458 126.906,7.53646 126.594,7.45312 C126.281,7.36979 125.906,7.32812 125.469,7.32812 C125.083,7.32812 124.75,7.40365 124.469,7.55469 C124.188,7.70573 124.047,7.94271 124.047,8.26562 C124.047,8.43229 124.078,8.57812 124.141,8.70312 C124.203,8.82812 124.299,8.94271 124.43,9.04688 C124.56,9.15104 124.724,9.2474 124.922,9.33594 C125.12,9.42448 125.354,9.51562 125.625,9.60938 C125.99,9.74479 126.312,9.88021 126.594,10.0156 C126.875,10.151 127.117,10.3047 127.32,10.4766 C127.523,10.6484 127.68,10.8594 127.789,11.1094 C127.898,11.3594 127.953,11.6667 127.953,12.0312 C127.953,12.7396 127.69,13.2734 127.164,13.6328 C126.638,13.9922 125.891,14.1719 124.922,14.1719 C124.245,14.1719 123.716,14.1172 123.336,14.0078 C122.956,13.8984 122.698,13.8125 122.562,13.75 L122.812,12.5781 C122.969,12.6406 123.219,12.7292 123.562,12.8438 C123.906,12.9583 124.359,13.0156 124.922,13.0156 M135.75,13.7812 C135.438,13.8542 135.026,13.9349 134.516,14.0234 C134.005,14.112 133.411,14.1562 132.734,14.1562 C132.141,14.1562 131.643,14.0703 131.242,13.8984 C130.841,13.7266 130.518,13.4844 130.273,13.1719 C130.029,12.8594 129.854,12.4922 129.75,12.0703 C129.646,11.6484 129.594,11.1771 129.594,10.6562 L129.594,6.35938 L130.953,6.35938 L130.953,10.3594 C130.953,11.2865 131.099,11.9505 131.391,12.3516 C131.682,12.7526 132.177,12.9531 132.875,12.9531 C133.021,12.9531 133.172,12.9479 133.328,12.9375 C133.484,12.9271 133.633,12.9167 133.773,12.9062 C133.914,12.8958 134.039,12.8828 134.148,12.8672 C134.258,12.8516 134.339,12.8333 134.391,12.8125 L134.391,6.35938 L135.75,6.35938 L135.75,13.7812 M139.453,6.70312 C139.62,6.59896 139.872,6.48698 140.211,6.36719 C140.549,6.2474 140.938,6.1875 141.375,6.1875 C141.917,6.1875 142.401,6.28646 142.828,6.48438 C143.255,6.68229 143.617,6.95573 143.914,7.30469 C144.211,7.65365 144.435,8.07292 144.586,8.5625 C144.737,9.05208 144.812,9.59375 144.812,10.1875 C144.812,10.8021 144.721,11.3568 144.539,11.8516 C144.357,12.3464 144.099,12.7656 143.766,13.1094 C143.432,13.4531 143.031,13.7161 142.562,13.8984 C142.094,14.0807 141.562,14.1719 140.969,14.1719 C140.333,14.1719 139.771,14.1276 139.281,14.0391 C138.792,13.9505 138.391,13.8646 138.078,13.7812 L138.078,2.84375 L139.453,2.60938 L139.453,6.70312 M139.453,12.8125 C139.589,12.8542 139.781,12.8906 140.031,12.9219 C140.281,12.9531 140.594,12.9688 140.969,12.9688 C141.698,12.9688 142.284,12.7266 142.727,12.2422 C143.169,11.7578 143.391,11.0729 143.391,10.1875 C143.391,9.79167 143.352,9.42188 143.273,9.07812 C143.195,8.73438 143.068,8.4375 142.891,8.1875 C142.714,7.9375 142.484,7.74219 142.203,7.60156 C141.922,7.46094 141.589,7.39062 141.203,7.39062 C140.828,7.39062 140.484,7.45573 140.172,7.58594 C139.859,7.71615 139.62,7.84896 139.453,7.98438 L139.453,12.8125 M151.703,10.7344 C151.703,11.2135 151.651,11.6641 151.547,12.0859 C151.443,12.5078 151.26,12.8776 151,13.1953 C150.74,13.513 150.393,13.763 149.961,13.9453 C149.529,14.1276 148.984,14.2188 148.328,14.2188 C147.995,14.2188 147.688,14.1927 147.406,14.1406 C147.125,14.0885 146.872,14.0208 146.648,13.9375 C146.424,13.8542 146.229,13.7656 146.062,13.6719 C145.896,13.5781 145.766,13.4844 145.672,13.3906 L146.219,12.2656 C146.427,12.4115 146.695,12.5651 147.023,12.7266 C147.352,12.888 147.76,12.9688 148.25,12.9688 C148.958,12.9688 149.474,12.7917 149.797,12.4375 C150.12,12.0833 150.281,11.4688 150.281,10.5938 L150.281,3.82812 L151.703,3.82812 L151.703,10.7344 M160.797,10.1875 C160.797,10.7917 160.708,11.3385 160.531,11.8281 C160.354,12.3177 160.107,12.7396 159.789,13.0938 C159.471,13.4479 159.091,13.7188 158.648,13.9062 C158.206,14.0938 157.724,14.1875 157.203,14.1875 C156.693,14.1875 156.216,14.0938 155.773,13.9062 C155.331,13.7188 154.951,13.4479 154.633,13.0938 C154.315,12.7396 154.068,12.3177 153.891,11.8281 C153.714,11.3385 153.625,10.7917 153.625,10.1875 C153.625,9.58333 153.714,9.03646 153.891,8.54688 C154.068,8.05729 154.315,7.63542 154.633,7.28125 C154.951,6.92708 155.331,6.65365 155.773,6.46094 C156.216,6.26823 156.693,6.17188 157.203,6.17188 C157.724,6.17188 158.206,6.26823 158.648,6.46094 C159.091,6.65365 159.471,6.92708 159.789,7.28125 C160.107,7.63542 160.354,8.05729 160.531,8.54688 C160.708,9.03646 160.797,9.58333 160.797,10.1875 M159.359,10.1875 C159.359,9.32292 159.167,8.63802 158.781,8.13281 C158.396,7.6276 157.87,7.375 157.203,7.375 C156.536,7.375 156.01,7.6276 155.625,8.13281 C155.24,8.63802 155.047,9.32292 155.047,10.1875 C155.047,11.0417 155.24,11.7214 155.625,12.2266 C156.01,12.7318 156.536,12.9844 157.203,12.9844 C157.87,12.9844 158.396,12.7318 158.781,12.2266 C159.167,11.7214 159.359,11.0417 159.359,10.1875 M164.078,14 L162.703,14 L162.703,6.35938 L164.078,6.35938 L164.078,14 M163.391,4.98438 C163.141,4.98438 162.93,4.90365 162.758,4.74219 C162.586,4.58073 162.5,4.36458 162.5,4.09375 C162.5,3.82292 162.586,3.60677 162.758,3.44531 C162.93,3.28385 163.141,3.20312 163.391,3.20312 C163.63,3.20312 163.836,3.28385 164.008,3.44531 C164.18,3.60677 164.266,3.82292 164.266,4.09375 C164.266,4.36458 164.18,4.58073 164.008,4.74219 C163.836,4.90365 163.63,4.98438 163.391,4.98438 M166.406,6.59375 C166.719,6.51042 167.135,6.42448 167.656,6.33594 C168.177,6.2474 168.776,6.20312 169.453,6.20312 C170.057,6.20312 170.56,6.28906 170.961,6.46094 C171.362,6.63281 171.682,6.8724 171.922,7.17969 C172.161,7.48698 172.331,7.85677 172.43,8.28906 C172.529,8.72135 172.578,9.19792 172.578,9.71875 L172.578,14 L171.219,14 L171.219,10 C171.219,9.53125 171.185,9.13021 171.117,8.79688 C171.049,8.46354 170.943,8.19531 170.797,7.99219 C170.651,7.78906 170.456,7.64062 170.211,7.54688 C169.966,7.45312 169.661,7.40625 169.297,7.40625 C169.151,7.40625 169,7.41146 168.844,7.42188 C168.688,7.43229 168.539,7.44531 168.398,7.46094 C168.258,7.47656 168.13,7.49479 168.016,7.51562 C167.901,7.53646 167.823,7.55208 167.781,7.5625 L167.781,14 L166.406,14 L166.406,6.59375 M176.094,6.35938 L178.984,6.35938 L178.984,7.51562 L176.094,7.51562 L176.094,11.0312 C176.094,11.4167 176.122,11.7344 176.18,11.9844 C176.237,12.2344 176.326,12.4297 176.445,12.5703 C176.565,12.7109 176.714,12.8099 176.891,12.8672 C177.068,12.9245 177.271,12.9531 177.5,12.9531 C177.917,12.9531 178.25,12.9062 178.5,12.8125 C178.75,12.7188 178.922,12.6562 179.016,12.625 L179.281,13.75 C179.146,13.8229 178.906,13.9089 178.562,14.0078 C178.219,14.1068 177.828,14.1562 177.391,14.1562 C176.87,14.1562 176.44,14.0911 176.102,13.9609 C175.763,13.8307 175.492,13.6328 175.289,13.3672 C175.086,13.1016 174.943,12.776 174.859,12.3906 C174.776,12.0052 174.734,11.5573 174.734,11.0469 L174.734,4.23438 L176.094,4 L176.094,6.35938 M182.484,13.0156 C183.047,13.0156 183.461,12.9427 183.727,12.7969 C183.992,12.651 184.125,12.4167 184.125,12.0938 C184.125,11.7604 183.995,11.4948 183.734,11.2969 C183.474,11.099 183.036,10.8802 182.422,10.6406 C182.13,10.526 181.849,10.4062 181.578,10.2812 C181.307,10.1562 181.076,10.0104 180.883,9.84375 C180.69,9.67708 180.534,9.47656 180.414,9.24219 C180.294,9.00781 180.234,8.71875 180.234,8.375 C180.234,7.69792 180.484,7.16146 180.984,6.76562 C181.484,6.36979 182.167,6.17188 183.031,6.17188 C183.24,6.17188 183.453,6.1849 183.672,6.21094 C183.891,6.23698 184.094,6.26823 184.281,6.30469 C184.469,6.34115 184.633,6.3776 184.773,6.41406 C184.914,6.45052 185.021,6.48438 185.094,6.51562 L184.844,7.6875 C184.698,7.61458 184.469,7.53646 184.156,7.45312 C183.844,7.36979 183.469,7.32812 183.031,7.32812 C182.646,7.32812 182.312,7.40365 182.031,7.55469 C181.75,7.70573 181.609,7.94271 181.609,8.26562 C181.609,8.43229 181.641,8.57812 181.703,8.70312 C181.766,8.82812 181.862,8.94271 181.992,9.04688 C182.122,9.15104 182.286,9.2474 182.484,9.33594 C182.682,9.42448 182.917,9.51562 183.188,9.60938 C183.552,9.74479 183.875,9.88021 184.156,10.0156 C184.438,10.151 184.68,10.3047 184.883,10.4766 C185.086,10.6484 185.242,10.8594 185.352,11.1094 C185.461,11.3594 185.516,11.6667 185.516,12.0312 C185.516,12.7396 185.253,13.2734 184.727,13.6328 C184.201,13.9922 183.453,14.1719 182.484,14.1719 C181.807,14.1719 181.279,14.1172 180.898,14.0078 C180.518,13.8984 180.26,13.8125 180.125,13.75 L180.375,12.5781 C180.531,12.6406 180.781,12.7292 181.125,12.8438 C181.469,12.9583 181.922,13.0156 182.484,13.0156 "/>
</g>

<g fill="none" stroke="#000000" stroke-opacity="1" stroke-width="1" stroke-linecap="square" stroke-linejoin="bevel" transform="matrix(2,0,0,2,343.939,87.9999)"
font-family="Ubuntu" font-size="11" font-weight="400" font-style="normal" 
>
</g>

<g fill="none" stroke="#000000" stroke-opacity="1" stroke-width="1" stroke-linecap="square" stroke-linejoin="bevel" transform="matrix(2,0,0,2,343.939,87.9999)"
font-family="Ubuntu" font-size="11" font-weight="400" font-style="normal" 
>
</g>

<g fill="none" stroke="#000000" stroke-opacity="1" stroke-width="1" stroke-linecap="square" stroke-linejoin="bevel" transform="matrix(2,0,0,2,-1.9984,173)"
font-family="Ubuntu" font-size="11" font-weight="400" font-style="normal" 
>
</g>

<g fill="none" stroke="#000000" stroke-opacity="1" stroke-width="1" stroke-linecap="square" stroke-linejoin="bevel" transform="matrix(2,0,0,2,-1.9984,173)"
font-family="Ubuntu" font-size="11" font-weight="400" font-style="normal" 
>
</g>

<g fill="none" stroke="#000000" stroke-opacity="1" stroke-width="1" stroke-linecap="square" stroke-linejoin="bevel" transform="matrix(2,0,0,2,-1.9984,173)"
font-family="Ubuntu" font-size="11" font-weight="400" font-style="normal" 
>
</g>

<g fill="none" stroke="#000000" stroke-opacity="1" stroke-width="1" stroke-linecap="square" stroke-linejoin="round" transform="matrix(2,0,0,2,-1.9984,173)"
font-family="Ubuntu" font-size="11" font-weight="400" font-style="normal" 
>
<path vector-effect="none" fill-rule="evenodd" d="M158,-86 L554,-86 L554,-8 L158,-8 L158,-86"/>
</g>

<g fill="none" stroke="#000000" stroke-opacity="1" stroke-width="1" stroke-linecap="square" stroke-linejoin="bevel" transform="matrix(2,0,0,2,-1.9984,173)"
font-family="Ubuntu" font-size="11" font-weight="400" font-style="normal" 
>
</g>

<g fill="none" stroke="#000000" stroke-opacity="1" stroke-width="1" stroke-linecap="square" stroke-linejoin="bevel" transform="matrix(2,0,0,2,631.563,14)"
font-family="Ubuntu" font-size="11" font-weight="400" font-style="normal" 
>
</g>

<g fill="none" stroke="#000000" stroke-opacity="1" stroke-width="1" stroke-linecap="square" stroke-linejoin="bevel" transform="matrix(2,0,0,2,631.563,14)"
font-family="Ubuntu" font-size="11" font-weight="400" font-style="normal" 
>
</g>

<g fill="#000000" fill-opacity="1" stroke="#000000" stroke-opacity="1" stroke-width="1" stroke-linecap="square" stroke-linejoin="round" transform="matrix(2,0,0,2,631.563,14)"
font-family="Ubuntu" font-size="11" font-weight="400" font-style="normal" 
>
<path vector-effect="non-scaling-stroke" fill-rule="nonzero" d="M3.76562,13.0156 C4.08854,13.0156 4.375,13.0078 4.625,12.9922 C4.875,12.9766 5.08333,12.9479 5.25,12.9062 L5.25,10.6406 C5.14583,10.5885 4.98438,10.5469 4.76562,10.5156 C4.54688,10.4844 4.28125,10.4688 3.96875,10.4688 C3.76042,10.4688 3.54167,10.4818 3.3125,10.5078 C3.08333,10.5339 2.8724,10.5938 2.67969,10.6875 C2.48698,10.7812 2.32812,10.9089 2.20312,11.0703 C2.07812,11.2318 2.01562,11.4427 2.01562,11.7031 C2.01562,12.1927 2.17188,12.5339 2.48438,12.7266 C2.79688,12.9193 3.22396,13.0156 3.76562,13.0156 M3.64062,6.17188 C4.19271,6.17188 4.65625,6.24479 5.03125,6.39062 C5.40625,6.53646 5.70833,6.73698 5.9375,6.99219 C6.16667,7.2474 6.33073,7.55469 6.42969,7.91406 C6.52865,8.27344 6.57812,8.66667 6.57812,9.09375 L6.57812,13.875 C6.46354,13.8854 6.29948,13.9089 6.08594,13.9453 C5.8724,13.9818 5.63542,14.0156 5.375,14.0469 C5.11458,14.0781 4.83073,14.1042 4.52344,14.125 C4.21615,14.1458 3.90625,14.1562 3.59375,14.1562 C3.16667,14.1562 2.77344,14.112 2.41406,14.0234 C2.05469,13.9349 1.74219,13.7969 1.47656,13.6094 C1.21094,13.4219 1.00521,13.1719 0.859375,12.8594 C0.713542,12.5469 0.640625,12.1667 0.640625,11.7188 C0.640625,11.3021 0.726562,10.9427 0.898438,10.6406 C1.07031,10.3385 1.30208,10.0938 1.59375,9.90625 C1.88542,9.71875 2.22656,9.58073 2.61719,9.49219 C3.00781,9.40365 3.41667,9.35938 3.84375,9.35938 C3.98958,9.35938 4.13542,9.36719 4.28125,9.38281 C4.42708,9.39844 4.5651,9.41927 4.69531,9.44531 C4.82552,9.47135 4.9401,9.49219 5.03906,9.50781 C5.13802,9.52344 5.20833,9.53646 5.25,9.54688 L5.25,9.17188 C5.25,8.94271 5.22396,8.71875 5.17188,8.5 C5.11979,8.28125 5.03125,8.08594 4.90625,7.91406 C4.78125,7.74219 4.60938,7.60417 4.39062,7.5 C4.17188,7.39583 3.88542,7.34375 3.53125,7.34375 C3.07292,7.34375 2.67708,7.3776 2.34375,7.44531 C2.01042,7.51302 1.76042,7.57812 1.59375,7.64062 L1.42188,6.51562 C1.59896,6.43229 1.89323,6.35417 2.30469,6.28125 C2.71615,6.20833 3.16146,6.17188 3.64062,6.17188 M10.2031,14 L8.82812,14 L8.82812,6.35938 L10.2031,6.35938 L10.2031,14 M9.51562,4.98438 C9.26562,4.98438 9.05469,4.90365 8.88281,4.74219 C8.71094,4.58073 8.625,4.36458 8.625,4.09375 C8.625,3.82292 8.71094,3.60677 8.88281,3.44531 C9.05469,3.28385 9.26562,3.20312 9.51562,3.20312 C9.75521,3.20312 9.96094,3.28385 10.1328,3.44531 C10.3047,3.60677 10.3906,3.82292 10.3906,4.09375 C10.3906,4.36458 10.3047,4.58073 10.1328,4.74219 C9.96094,4.90365 9.75521,4.98438 9.51562,4.98438 M13.9062,6.70312 C14.0729,6.59896 14.3255,6.48698 14.6641,6.36719 C15.0026,6.2474 15.3906,6.1875 15.8281,6.1875 C16.3698,6.1875 16.8542,6.28646 17.2812,6.48438 C17.7083,6.68229 18.0703,6.95573 18.3672,7.30469 C18.6641,7.65365 18.888,8.07292 19.0391,8.5625 C19.1901,9.05208 19.2656,9.59375 19.2656,10.1875 C19.2656,10.8021 19.1745,11.3568 18.9922,11.8516 C18.8099,12.3464 18.5521,12.7656 18.2188,13.1094 C17.8854,13.4531 17.4844,13.7161 17.0156,13.8984 C16.5469,14.0807 16.0156,14.1719 15.4219,14.1719 C14.7865,14.1719 14.224,14.1276 13.7344,14.0391 C13.2448,13.9505 12.8438,13.8646 12.5312,13.7812 L12.5312,2.84375 L13.9062,2.60938 L13.9062,6.70312 M13.9062,12.8125 C14.0417,12.8542 14.2344,12.8906 14.4844,12.9219 C14.7344,12.9531 15.0469,12.9688 15.4219,12.9688 C16.151,12.9688 16.737,12.7266 17.1797,12.2422 C17.6224,11.7578 17.8438,11.0729 17.8438,10.1875 C17.8438,9.79167 17.8047,9.42188 17.7266,9.07812 C17.6484,8.73438 17.5208,8.4375 17.3438,8.1875 C17.1667,7.9375 16.9375,7.74219 16.6562,7.60156 C16.375,7.46094 16.0417,7.39062 15.6562,7.39062 C15.2812,7.39062 14.9375,7.45573 14.625,7.58594 C14.3125,7.71615 14.0729,7.84896 13.9062,7.98438 L13.9062,12.8125 M27.9219,10.1875 C27.9219,10.7917 27.8333,11.3385 27.6562,11.8281 C27.4792,12.3177 27.2318,12.7396 26.9141,13.0938 C26.5964,13.4479 26.2161,13.7188 25.7734,13.9062 C25.3307,14.0938 24.849,14.1875 24.3281,14.1875 C23.8177,14.1875 23.3411,14.0938 22.8984,13.9062 C22.4557,13.7188 22.0755,13.4479 21.7578,13.0938 C21.4401,12.7396 21.1927,12.3177 21.0156,11.8281 C20.8385,11.3385 20.75,10.7917 20.75,10.1875 C20.75,9.58333 20.8385,9.03646 21.0156,8.54688 C21.1927,8.05729 21.4401,7.63542 21.7578,7.28125 C22.0755,6.92708 22.4557,6.65365 22.8984,6.46094 C23.3411,6.26823 23.8177,6.17188 24.3281,6.17188 C24.849,6.17188 25.3307,6.26823 25.7734,6.46094 C26.2161,6.65365 26.5964,6.92708 26.9141,7.28125 C27.2318,7.63542 27.4792,8.05729 27.6562,8.54688 C27.8333,9.03646 27.9219,9.58333 27.9219,10.1875 M26.4844,10.1875 C26.4844,9.32292 26.2917,8.63802 25.9062,8.13281 C25.5208,7.6276 24.9948,7.375 24.3281,7.375 C23.6615,7.375 23.1354,7.6276 22.75,8.13281 C22.3646,8.63802 22.1719,9.32292 22.1719,10.1875 C22.1719,11.0417 22.3646,11.7214 22.75,12.2266 C23.1354,12.7318 23.6615,12.9844 24.3281,12.9844 C24.9948,12.9844 25.5208,12.7318 25.9062,12.2266 C26.2917,11.7214 26.4844,11.0417 26.4844,10.1875 M28.5938,15.5625 L35.9375,15.5625 L35.9375,16.7188 L28.5938,16.7188 L28.5938,15.5625 M38.8125,13.0156 C39.375,13.0156 39.7891,12.9427 40.0547,12.7969 C40.3203,12.651 40.4531,12.4167 40.4531,12.0938 C40.4531,11.7604 40.3229,11.4948 40.0625,11.2969 C39.8021,11.099 39.3646,10.8802 38.75,10.6406 C38.4583,10.526 38.1771,10.4062 37.9062,10.2812 C37.6354,10.1562 37.4036,10.0104 37.2109,9.84375 C37.0182,9.67708 36.862,9.47656 36.7422,9.24219 C36.6224,9.00781 36.5625,8.71875 36.5625,8.375 C36.5625,7.69792 36.8125,7.16146 37.3125,6.76562 C37.8125,6.36979 38.4948,6.17188 39.3594,6.17188 C39.5677,6.17188 39.7812,6.1849 40,6.21094 C40.2188,6.23698 40.4219,6.26823 40.6094,6.30469 C40.7969,6.34115 40.9609,6.3776 41.1016,6.41406 C41.2422,6.45052 41.349,6.48438 41.4219,6.51562 L41.1719,7.6875 C41.026,7.61458 40.7969,7.53646 40.4844,7.45312 C40.1719,7.36979 39.7969,7.32812 39.3594,7.32812 C38.974,7.32812 38.6406,7.40365 38.3594,7.55469 C38.0781,7.70573 37.9375,7.94271 37.9375,8.26562 C37.9375,8.43229 37.9688,8.57812 38.0312,8.70312 C38.0938,8.82812 38.1901,8.94271 38.3203,9.04688 C38.4505,9.15104 38.6146,9.2474 38.8125,9.33594 C39.0104,9.42448 39.2448,9.51562 39.5156,9.60938 C39.8802,9.74479 40.2031,9.88021 40.4844,10.0156 C40.7656,10.151 41.0078,10.3047 41.2109,10.4766 C41.4141,10.6484 41.5703,10.8594 41.6797,11.1094 C41.7891,11.3594 41.8438,11.6667 41.8438,12.0312 C41.8438,12.7396 41.5807,13.2734 41.0547,13.6328 C40.5286,13.9922 39.7812,14.1719 38.8125,14.1719 C38.1354,14.1719 37.6068,14.1172 37.2266,14.0078 C36.8464,13.8984 36.5885,13.8125 36.4531,13.75 L36.7031,12.5781 C36.8594,12.6406 37.1094,12.7292 37.4531,12.8438 C37.7969,12.9583 38.25,13.0156 38.8125,13.0156 M43.1406,10.2031 C43.1406,9.52604 43.2396,8.9349 43.4375,8.42969 C43.6354,7.92448 43.8958,7.50521 44.2188,7.17188 C44.5417,6.83854 44.9141,6.58854 45.3359,6.42188 C45.7578,6.25521 46.1875,6.17188 46.625,6.17188 C47.6458,6.17188 48.4323,6.49219 48.9844,7.13281 C49.5365,7.77344 49.8125,8.75 49.8125,10.0625 C49.8125,10.125 49.8125,10.2031 49.8125,10.2969 C49.8125,10.3906 49.8073,10.474 49.7969,10.5469 L44.5625,10.5469 C44.625,11.3385 44.8568,11.9401 45.2578,12.3516 C45.6589,12.763 46.2865,12.9688 47.1406,12.9688 C47.6198,12.9688 48.0234,12.9271 48.3516,12.8438 C48.6797,12.7604 48.9271,12.6823 49.0938,12.6094 L49.2812,13.75 C49.1146,13.8333 48.8229,13.9245 48.4062,14.0234 C47.9896,14.1224 47.5156,14.1719 46.9844,14.1719 C46.3177,14.1719 45.7422,14.0729 45.2578,13.875 C44.7734,13.6771 44.375,13.401 44.0625,13.0469 C43.75,12.6927 43.5182,12.2734 43.3672,11.7891 C43.2161,11.3047 43.1406,10.776 43.1406,10.2031 M48.3906,9.45312 C48.3906,8.83854 48.2318,8.33073 47.9141,7.92969 C47.5964,7.52865 47.1615,7.32812 46.6094,7.32812 C46.2969,7.32812 46.0208,7.39062 45.7812,7.51562 C45.5417,7.64062 45.3385,7.80208 45.1719,8 C45.0052,8.19792 44.875,8.42188 44.7812,8.67188 C44.6875,8.92188 44.625,9.18229 44.5938,9.45312 L48.3906,9.45312 M54.5781,6.20312 C54.6927,6.20312 54.8255,6.21094 54.9766,6.22656 C55.1276,6.24219 55.276,6.26302 55.4219,6.28906 C55.5677,6.3151 55.7031,6.33854 55.8281,6.35938 C55.9531,6.38021 56.0417,6.40104 56.0938,6.42188 L55.8594,7.60938 C55.7552,7.57812 55.5781,7.53385 55.3281,7.47656 C55.0781,7.41927 54.7604,7.39062 54.375,7.39062 C54.1146,7.39062 53.8594,7.41927 53.6094,7.47656 C53.3594,7.53385 53.1979,7.56771 53.125,7.57812 L53.125,14 L51.75,14 L51.75,6.6875 C52.0729,6.57292 52.474,6.46354 52.9531,6.35938 C53.4323,6.25521 53.974,6.20312 54.5781,6.20312 M63.375,6.35938 C62.9896,7.79688 62.5417,9.16927 62.0312,10.4766 C61.5208,11.7839 61.0208,12.9583 60.5312,14 L59.3125,14 C58.8333,12.9583 58.3359,11.7839 57.8203,10.4766 C57.3047,9.16927 56.8542,7.79688 56.4688,6.35938 L57.9375,6.35938 C58.0521,6.84896 58.1901,7.36458 58.3516,7.90625 C58.513,8.44792 58.6849,8.98438 58.8672,9.51562 C59.0495,10.0469 59.2344,10.5625 59.4219,11.0625 C59.6094,11.5625 59.7865,12.0104 59.9531,12.4062 C60.1198,12.0104 60.2969,11.5625 60.4844,11.0625 C60.6719,10.5625 60.8542,10.0469 61.0312,9.51562 C61.2083,8.98438 61.3776,8.44792 61.5391,7.90625 C61.7005,7.36458 61.8438,6.84896 61.9688,6.35938 L63.375,6.35938 M64.3438,10.2031 C64.3438,9.52604 64.4427,8.9349 64.6406,8.42969 C64.8385,7.92448 65.099,7.50521 65.4219,7.17188 C65.7448,6.83854 66.1172,6.58854 66.5391,6.42188 C66.9609,6.25521 67.3906,6.17188 67.8281,6.17188 C68.849,6.17188 69.6354,6.49219 70.1875,7.13281 C70.7396,7.77344 71.0156,8.75 71.0156,10.0625 C71.0156,10.125 71.0156,10.2031 71.0156,10.2969 C71.0156,10.3906 71.0104,10.474 71,10.5469 L65.7656,10.5469 C65.8281,11.3385 66.0599,11.9401 66.4609,12.3516 C66.862,12.763 67.4896,12.9688 68.3438,12.9688 C68.8229,12.9688 69.2266,12.9271 69.5547,12.8438 C69.8828,12.7604 70.1302,12.6823 70.2969,12.6094 L70.4844,13.75 C70.3177,13.8333 70.026,13.9245 69.6094,14.0234 C69.1927,14.1224 68.7188,14.1719 68.1875,14.1719 C67.5208,14.1719 66.9453,14.0729 66.4609,13.875 C65.9766,13.6771 65.5781,13.401 65.2656,13.0469 C64.9531,12.6927 64.7214,12.2734 64.5703,11.7891 C64.4193,11.3047 64.3438,10.776 64.3438,10.2031 M69.5938,9.45312 C69.5938,8.83854 69.4349,8.33073 69.1172,7.92969 C68.7995,7.52865 68.3646,7.32812 67.8125,7.32812 C67.5,7.32812 67.224,7.39062 66.9844,7.51562 C66.7448,7.64062 66.5417,7.80208 66.375,8 C66.2083,8.19792 66.0781,8.42188 65.9844,8.67188 C65.8906,8.92188 65.8281,9.18229 65.7969,9.45312 L69.5938,9.45312 M75.7812,6.20312 C75.8958,6.20312 76.0286,6.21094 76.1797,6.22656 C76.3307,6.24219 76.4792,6.26302 76.625,6.28906 C76.7708,6.3151 76.9062,6.33854 77.0312,6.35938 C77.1562,6.38021 77.2448,6.40104 77.2969,6.42188 L77.0625,7.60938 C76.9583,7.57812 76.7812,7.53385 76.5312,7.47656 C76.2812,7.41927 75.9635,7.39062 75.5781,7.39062 C75.3177,7.39062 75.0625,7.41927 74.8125,7.47656 C74.5625,7.53385 74.401,7.56771 74.3281,7.57812 L74.3281,14 L72.9531,14 L72.9531,6.6875 C73.276,6.57292 73.6771,6.46354 74.1562,6.35938 C74.6354,6.25521 75.1771,6.20312 75.7812,6.20312 "/>
</g>

<g fill="none" stroke="#000000" stroke-opacity="1" stroke-width="1" stroke-linecap="square" stroke-linejoin="bevel" transform="matrix(2,0,0,2,631.563,14)"
font-family="Ubuntu" font-size="11" font-weight="400" font-style="normal" 
>
</g>

<g fill="none" stroke="#000000" stroke-opacity="1" stroke-width="1" stroke-linecap="square" stroke-linejoin="bevel" transform="matrix(2,0,0,2,631.563,14)"
font-family="Ubuntu" font-size="11" font-weight="400" font-style="normal" 
>
</g>

<g fill="none" stroke="#000000" stroke-opacity="1" stroke-width="1" stroke-linecap="square" stroke-linejoin="bevel" transform="matrix(2,0,0,2,-1.9984,173)"
font-family="Ubuntu" font-size="11" font-weight="400" font-style="normal" 
>
</g>

<g fill="none" stroke="#000000" stroke-opacity="1" stroke-width="1" stroke-linecap="square" stroke-linejoin="bevel" transform="matrix(2,0,0,2,-1.9984,173)"
font-family="Ubuntu" font-size="11" font-weight="400" font-style="normal" 
>
</g>

<g fill="none" stroke="#000000" stroke-opacity="1" stroke-width="1" stroke-linecap="square" stroke-linejoin="bevel" transform="matrix(2,0,0,2,-1.9984,173)"
font-family="Ubuntu" font-size="11" font-weight="400" font-style="normal" 
>
</g>

<g fill="none" stroke="#000000" stroke-opacity="1" stroke-width="1" stroke-linecap="square" stroke-linejoin="round" transform="matrix(2,0,0,2,-1.9984,173)"
font-family="Ubuntu" font-size="11" font-weight="400" font-style="normal" 
>
<path vector-effect="none" fill-rule="evenodd" d="M129.7,-34 C138.13,-34 146.93,-34 155.84,-34 "/>
</g>

<g fill="none" stroke="#000000" stroke-opacity="1" stroke-width="1" stroke-linecap="square" stroke-linejoin="bevel" transform="matrix(2,0,0,2,-1.9984,173)"
font-family="Ubuntu" font-size="11" font-weight="400" font-style="normal" 
>
</g>

<g fill="none" stroke="#000000" stroke-opacity="1" stroke-width="1" stroke-linecap="square" stroke-linejoin="bevel" transform="matrix(2,0,0,2,-1.9984,173)"
font-family="Ubuntu" font-size="11" font-weight="400" font-style="normal" 
>
</g>

<g fill="#000000" fill-opacity="1" stroke="#000000" stroke-opacity="1" stroke-width="1" stroke-linecap="square" stroke-linejoin="round" transform="matrix(2,0,0,2,-1.9984,173)"
font-family="Ubuntu" font-size="11" font-weight="400" font-style="normal" 
>
<path vector-effect="none" fill-rule="evenodd" d="M155.84,-34 L155.84,-30.4685 L165.93,-34 L155.84,-37.5315 L155.84,-34"/>
</g>

<g fill="none" stroke="#000000" stroke-opacity="1" stroke-width="1" stroke-linecap="square" stroke-linejoin="bevel" transform="matrix(2,0,0,2,-1.9984,173)"
font-family="Ubuntu" font-size="11" font-weight="400" font-style="normal" 
>
</g>

<g fill="none" stroke="#000000" stroke-opacity="1" stroke-width="1" stroke-linecap="square" stroke-linejoin="bevel" transform="matrix(2,0,0,2,-1.9984,173)"
font-family="Ubuntu" font-size="11" font-weight="400" font-style="normal" 
>
</g>

<g fill="none" stroke="#000000" stroke-opacity="1" stroke-width="1" stroke-linecap="square" stroke-linejoin="bevel" transform="matrix(2,0,0,2,-1.9984,173)"
font-family="Ubuntu" font-size="11" font-weight="400" font-style="normal" 
>
</g>

<g fill="none" stroke="#000000" stroke-opacity="1" stroke-width="1" stroke-linecap="square" stroke-linejoin="bevel" transform="matrix(2,0,0,2,-1.9984,173)"
font-family="Ubuntu" font-size="11" font-weight="400" font-style="normal" 
>
</g>

<g fill="none" stroke="#000000" stroke-opacity="1" stroke-width="1" stroke-linecap="square" stroke-linejoin="round" transform="matrix(2,0,0,2,-1.9984,173)"
font-family="Ubuntu" font-size="11" font-weight="400" font-style="normal" 
>
<path vector-effect="none" fill-rule="evenodd" d="M366.04,-34 C374.87,-34 383.73,-34 392.38,-34 "/>
</g>

<g fill="none" stroke="#000000" stroke-opacity="1" stroke-width="1" stroke-linecap="square" stroke-linejoin="bevel" transform="matrix(2,0,0,2,-1.9984,173)"
font-family="Ubuntu" font-size="11" font-weight="400" font-style="normal" 
>
</g>

<g fill="none" stroke="#000000" stroke-opacity="1" stroke-width="1" stroke-linecap="square" stroke-linejoin="bevel" transform="matrix(2,0,0,2,-1.9984,173)"
font-family="Ubuntu" font-size="11" font-weight="400" font-style="normal" 
>
</g>

<g fill="#000000" fill-opacity="1" stroke="#000000" stroke-opacity="1" stroke-width="1" stroke-linecap="square" stroke-linejoin="round" transform="matrix(2,0,0,2,-1.9984,173)"
font-family="Ubuntu" font-size="11" font-weight="400" font-style="normal" 
>
<path vector-effect="none" fill-rule="evenodd" d="M392.38,-34 L392.38,-30.486 L402.42,-34 L392.38,-37.514 L392.38,-34"/>
</g>

<g fill="none" stroke="#000000" stroke-opacity="1" stroke-width="1" stroke-linecap="square" stroke-linejoin="bevel" transform="matrix(2,0,0,2,-1.9984,173)"
font-family="Ubuntu" font-size="11" font-weight="400" font-style="normal" 
>
</g>

<g fill="none" stroke="#000000" stroke-opacity="1" stroke-width="1" stroke-linecap="square" stroke-linejoin="bevel" transform="matrix(1,0,0,1,0,0)"
font-family="Ubuntu" font-size="11" font-weight="400" font-style="normal" 
>
</g>
</g>
</svg>
